# Tiled2Unity generated file. Do not modify by hand.
# Wavefront file for 'MAGE_FINAL_mesh_0009.obj'

# Vertices (Count = 100)
v -9 -5 0
v -10 -5 0
v -10 -4 0
v -9 -4 0
v -22 -6 0
v -23 -6 0
v -23 -5 0
v -22 -5 0
v -9 -10 0
v -10 -10 0
v -10 -9 0
v -9 -9 0
v -5 -10 0
v -6 -10 0
v -6 -9 0
v -5 -9 0
v -19 -11 0
v -20 -11 0
v -20 -10 0
v -19 -10 0
v -27 -13 0
v -28 -13 0
v -28 -12 0
v -27 -12 0
v -45 -14 0
v -46 -14 0
v -46 -13 0
v -45 -13 0
v -40 -16 0
v -41 -16 0
v -41 -15 0
v -40 -15 0
v -34 -16 0
v -35 -16 0
v -35 -15 0
v -34 -15 0
v -23 -17 0
v -24 -17 0
v -24 -16 0
v -23 -16 0
v -46 -18 0
v -47 -18 0
v -47 -17 0
v -46 -17 0
v -9 -18 0
v -10 -18 0
v -10 -17 0
v -9 -17 0
v -5 -18 0
v -6 -18 0
v -6 -17 0
v -5 -17 0
v -41 -19 0
v -42 -19 0
v -42 -18 0
v -41 -18 0
v -27 -19 0
v -28 -19 0
v -28 -18 0
v -27 -18 0
v -17 -19 0
v -18 -19 0
v -18 -18 0
v -17 -18 0
v -25 -21 0
v -26 -21 0
v -26 -20 0
v -25 -20 0
v -44 -22 0
v -45 -22 0
v -45 -21 0
v -44 -21 0
v -3 -22 0
v -4 -22 0
v -4 -21 0
v -3 -21 0
v -23 -24 0
v -24 -24 0
v -24 -23 0
v -23 -23 0
v -13 -24 0
v -14 -24 0
v -14 -23 0
v -13 -23 0
v -9 -25 0
v -10 -25 0
v -10 -24 0
v -9 -24 0
v -6 -25 0
v -7 -25 0
v -7 -24 0
v -6 -24 0
v -21 -27 0
v -22 -27 0
v -22 -26 0
v -21 -26 0
v -12 -28 0
v -13 -28 0
v -13 -27 0
v -12 -27 0

# Texture cooridinates (Count = 4)
vt 0 0
vt 1 0
vt 1 1
vt 0 1

# Normal
vn 0 0 -1

# Mesh description
g MAGE_FINAL_mesh_0009

# Faces
f 1/1/1 2/2/1 3/3/1 4/4/1
f 5/1/1 6/2/1 7/3/1 8/4/1
f 9/1/1 10/2/1 11/3/1 12/4/1
f 13/1/1 14/2/1 15/3/1 16/4/1
f 17/1/1 18/2/1 19/3/1 20/4/1
f 21/1/1 22/2/1 23/3/1 24/4/1
f 25/1/1 26/2/1 27/3/1 28/4/1
f 29/1/1 30/2/1 31/3/1 32/4/1
f 33/1/1 34/2/1 35/3/1 36/4/1
f 37/1/1 38/2/1 39/3/1 40/4/1
f 41/1/1 42/2/1 43/3/1 44/4/1
f 45/1/1 46/2/1 47/3/1 48/4/1
f 49/1/1 50/2/1 51/3/1 52/4/1
f 53/1/1 54/2/1 55/3/1 56/4/1
f 57/1/1 58/2/1 59/3/1 60/4/1
f 61/1/1 62/2/1 63/3/1 64/4/1
f 65/1/1 66/2/1 67/3/1 68/4/1
f 69/1/1 70/2/1 71/3/1 72/4/1
f 73/1/1 74/2/1 75/3/1 76/4/1
f 77/1/1 78/2/1 79/3/1 80/4/1
f 81/1/1 82/2/1 83/3/1 84/4/1
f 85/1/1 86/2/1 87/3/1 88/4/1
f 89/1/1 90/2/1 91/3/1 92/4/1
f 93/1/1 94/2/1 95/3/1 96/4/1
f 97/1/1 98/2/1 99/3/1 100/4/1

