# Tiled2Unity generated file. Do not modify by hand.
# Wavefront file for 'MAGE_FINAL_mesh_0006.obj'

# Vertices (Count = 272)
v -19 -1 0
v -20 -1 0
v -20 0 0
v -19 0 0
v -11 -1 0
v -12 -1 0
v -12 0 0
v -11 0 0
v -22 -2 0
v -23 -2 0
v -23 -1 0
v -22 -1 0
v -8 -2 0
v -9 -2 0
v -9 -1 0
v -8 -1 0
v -24 -3 0
v -25 -3 0
v -25 -2 0
v -24 -2 0
v -6 -3 0
v -7 -3 0
v -7 -2 0
v -6 -2 0
v -25 -4 0
v -26 -4 0
v -26 -3 0
v -25 -3 0
v -5 -4 0
v -6 -4 0
v -6 -3 0
v -5 -3 0
v -46 -5 0
v -47 -5 0
v -47 -4 0
v -46 -4 0
v -44 -5 0
v -45 -5 0
v -45 -4 0
v -44 -4 0
v -26 -5 0
v -27 -5 0
v -27 -4 0
v -26 -4 0
v -4 -5 0
v -5 -5 0
v -5 -4 0
v -4 -4 0
v -48 -6 0
v -49 -6 0
v -49 -5 0
v -48 -5 0
v -42 -6 0
v -43 -6 0
v -43 -5 0
v -42 -5 0
v -27 -6 0
v -28 -6 0
v -28 -5 0
v -27 -5 0
v -48 -7 0
v -49 -7 0
v -49 -6 0
v -48 -6 0
v -28 -7 0
v -29 -7 0
v -29 -6 0
v -28 -6 0
v -2 -7 0
v -3 -7 0
v -3 -6 0
v -2 -6 0
v -28 -8 0
v -29 -8 0
v -29 -7 0
v -28 -7 0
v -2 -8 0
v -3 -8 0
v -3 -7 0
v -2 -7 0
v -49 -9 0
v -50 -9 0
v -50 -8 0
v -49 -8 0
v -1 -9 0
v -2 -9 0
v -2 -8 0
v -1 -8 0
v -29 -11 0
v -30 -11 0
v -30 -10 0
v -29 -10 0
v 0 -12 0
v -1 -12 0
v -1 -11 0
v 0 -11 0
v -49 -13 0
v -50 -13 0
v -50 -12 0
v -49 -12 0
v -30 -13 0
v -31 -13 0
v -31 -12 0
v -30 -12 0
v 0 -13 0
v -1 -13 0
v -1 -12 0
v 0 -12 0
v -49 -14 0
v -50 -14 0
v -50 -13 0
v -49 -13 0
v 0 -14 0
v -1 -14 0
v -1 -13 0
v 0 -13 0
v 0 -15 0
v -1 -15 0
v -1 -14 0
v 0 -14 0
v -49 -16 0
v -50 -16 0
v -50 -15 0
v -49 -15 0
v 0 -16 0
v -1 -16 0
v -1 -15 0
v 0 -15 0
v -49 -17 0
v -50 -17 0
v -50 -16 0
v -49 -16 0
v 0 -17 0
v -1 -17 0
v -1 -16 0
v 0 -16 0
v -35 -18 0
v -36 -18 0
v -36 -17 0
v -35 -17 0
v 0 -18 0
v -1 -18 0
v -1 -17 0
v 0 -17 0
v -49 -19 0
v -50 -19 0
v -50 -18 0
v -49 -18 0
v -38 -19 0
v -39 -19 0
v -39 -18 0
v -38 -18 0
v 0 -19 0
v -1 -19 0
v -1 -18 0
v 0 -18 0
v -49 -20 0
v -50 -20 0
v -50 -19 0
v -49 -19 0
v -40 -20 0
v -41 -20 0
v -41 -19 0
v -40 -19 0
v -29 -20 0
v -30 -20 0
v -30 -19 0
v -29 -19 0
v -1 -20 0
v -2 -20 0
v -2 -19 0
v -1 -19 0
v -49 -21 0
v -50 -21 0
v -50 -20 0
v -49 -20 0
v -41 -21 0
v -42 -21 0
v -42 -20 0
v -41 -20 0
v -1 -21 0
v -2 -21 0
v -2 -20 0
v -1 -20 0
v -49 -22 0
v -50 -22 0
v -50 -21 0
v -49 -21 0
v -1 -22 0
v -2 -22 0
v -2 -21 0
v -1 -21 0
v -48 -23 0
v -49 -23 0
v -49 -22 0
v -48 -22 0
v -42 -23 0
v -43 -23 0
v -43 -22 0
v -42 -22 0
v -28 -23 0
v -29 -23 0
v -29 -22 0
v -28 -22 0
v -2 -23 0
v -3 -23 0
v -3 -22 0
v -2 -22 0
v -2 -24 0
v -3 -24 0
v -3 -23 0
v -2 -23 0
v -27 -25 0
v -28 -25 0
v -28 -24 0
v -27 -24 0
v -3 -25 0
v -4 -25 0
v -4 -24 0
v -3 -24 0
v -46 -26 0
v -47 -26 0
v -47 -25 0
v -46 -25 0
v -44 -26 0
v -45 -26 0
v -45 -25 0
v -44 -25 0
v -26 -26 0
v -27 -26 0
v -27 -25 0
v -26 -25 0
v -4 -26 0
v -5 -26 0
v -5 -25 0
v -4 -25 0
v -25 -27 0
v -26 -27 0
v -26 -26 0
v -25 -26 0
v -5 -27 0
v -6 -27 0
v -6 -26 0
v -5 -26 0
v -24 -28 0
v -25 -28 0
v -25 -27 0
v -24 -27 0
v -6 -28 0
v -7 -28 0
v -7 -27 0
v -6 -27 0
v -22 -29 0
v -23 -29 0
v -23 -28 0
v -22 -28 0
v -8 -29 0
v -9 -29 0
v -9 -28 0
v -8 -28 0
v -19 -30 0
v -20 -30 0
v -20 -29 0
v -19 -29 0
v -11 -30 0
v -12 -30 0
v -12 -29 0
v -11 -29 0
v -9 -30 0
v -10 -30 0
v -10 -29 0
v -9 -29 0

# Texture cooridinates (Count = 4)
vt 1 0
vt 0 0
vt 0 1
vt 1 1

# Normal
vn 0 0 -1

# Mesh description
g MAGE_FINAL_mesh_0006

# Faces
f 1/1/1 2/2/1 3/3/1 4/4/1
f 5/2/1 6/1/1 7/4/1 8/3/1
f 9/1/1 10/2/1 11/3/1 12/4/1
f 13/2/1 14/1/1 15/4/1 16/3/1
f 17/1/1 18/2/1 19/3/1 20/4/1
f 21/2/1 22/1/1 23/4/1 24/3/1
f 25/1/1 26/2/1 27/3/1 28/4/1
f 29/2/1 30/1/1 31/4/1 32/3/1
f 33/1/1 34/2/1 35/3/1 36/4/1
f 37/2/1 38/1/1 39/4/1 40/3/1
f 41/1/1 42/2/1 43/3/1 44/4/1
f 45/2/1 46/1/1 47/4/1 48/3/1
f 49/1/1 50/2/1 51/3/1 52/4/1
f 53/2/1 54/1/1 55/4/1 56/3/1
f 57/1/1 58/2/1 59/3/1 60/4/1
f 61/1/1 62/2/1 63/3/1 64/4/1
f 65/1/1 66/2/1 67/3/1 68/4/1
f 69/2/1 70/1/1 71/4/1 72/3/1
f 73/1/1 74/2/1 75/3/1 76/4/1
f 77/2/1 78/1/1 79/4/1 80/3/1
f 81/1/1 82/2/1 83/3/1 84/4/1
f 85/2/1 86/1/1 87/4/1 88/3/1
f 89/1/1 90/2/1 91/3/1 92/4/1
f 93/2/1 94/1/1 95/4/1 96/3/1
f 97/1/1 98/2/1 99/3/1 100/4/1
f 101/1/1 102/2/1 103/3/1 104/4/1
f 105/2/1 106/1/1 107/4/1 108/3/1
f 109/2/1 110/1/1 111/4/1 112/3/1
f 113/2/1 114/1/1 115/4/1 116/3/1
f 117/2/1 118/1/1 119/4/1 120/3/1
f 121/2/1 122/1/1 123/4/1 124/3/1
f 125/2/1 126/1/1 127/4/1 128/3/1
f 129/2/1 130/1/1 131/4/1 132/3/1
f 133/2/1 134/1/1 135/4/1 136/3/1
f 137/2/1 138/1/1 139/4/1 140/3/1
f 141/2/1 142/1/1 143/4/1 144/3/1
f 145/1/1 146/2/1 147/3/1 148/4/1
f 149/2/1 150/1/1 151/4/1 152/3/1
f 153/2/1 154/1/1 155/4/1 156/3/1
f 157/2/1 158/1/1 159/4/1 160/3/1
f 161/2/1 162/1/1 163/4/1 164/3/1
f 165/1/1 166/2/1 167/3/1 168/4/1
f 169/2/1 170/1/1 171/4/1 172/3/1
f 173/2/1 174/1/1 175/4/1 176/3/1
f 177/2/1 178/1/1 179/4/1 180/3/1
f 181/2/1 182/1/1 183/4/1 184/3/1
f 185/1/1 186/2/1 187/3/1 188/4/1
f 189/2/1 190/1/1 191/4/1 192/3/1
f 193/1/1 194/2/1 195/3/1 196/4/1
f 197/2/1 198/1/1 199/4/1 200/3/1
f 201/1/1 202/2/1 203/3/1 204/4/1
f 205/2/1 206/1/1 207/4/1 208/3/1
f 209/2/1 210/1/1 211/4/1 212/3/1
f 213/1/1 214/2/1 215/3/1 216/4/1
f 217/2/1 218/1/1 219/4/1 220/3/1
f 221/1/1 222/2/1 223/3/1 224/4/1
f 225/2/1 226/1/1 227/4/1 228/3/1
f 229/1/1 230/2/1 231/3/1 232/4/1
f 233/2/1 234/1/1 235/4/1 236/3/1
f 237/1/1 238/2/1 239/3/1 240/4/1
f 241/2/1 242/1/1 243/4/1 244/3/1
f 245/1/1 246/2/1 247/3/1 248/4/1
f 249/2/1 250/1/1 251/4/1 252/3/1
f 253/1/1 254/2/1 255/3/1 256/4/1
f 257/2/1 258/1/1 259/4/1 260/3/1
f 261/1/1 262/2/1 263/3/1 264/4/1
f 265/2/1 266/1/1 267/4/1 268/3/1
f 269/2/1 270/1/1 271/4/1 272/3/1

