# Tiled2Unity generated file. Do not modify by hand.
# Wavefront file for 'Beta_mesh_0033.obj'

# Vertices (Count = 24)
v -51 -13 0
v -52 -13 0
v -52 -12 0
v -51 -12 0
v -4 -25 0
v -5 -25 0
v -5 -24 0
v -4 -24 0
v -30 -59 0
v -31 -59 0
v -31 -58 0
v -30 -58 0
v -24 -66 0
v -25 -66 0
v -25 -65 0
v -24 -65 0
v -23 -67 0
v -24 -67 0
v -24 -66 0
v -23 -66 0
v -65 -75 0
v -66 -75 0
v -66 -74 0
v -65 -74 0

# Texture cooridinates (Count = 4)
vt 0 0
vt 1 0
vt 1 1
vt 0 1

# Normal
vn 0 0 -1

# Mesh description
g Beta_mesh_0033

# Faces
f 1/1/1 2/2/1 3/3/1 4/4/1
f 5/1/1 6/2/1 7/3/1 8/4/1
f 9/1/1 10/2/1 11/3/1 12/4/1
f 13/1/1 14/2/1 15/3/1 16/4/1
f 17/1/1 18/2/1 19/3/1 20/4/1
f 21/1/1 22/2/1 23/3/1 24/4/1

