# Tiled2Unity generated file. Do not modify by hand.
# Wavefront file for 'Beta_mesh_0036.obj'

# Vertices (Count = 16)
v -18 -42 0
v -19 -42 0
v -19 -41 0
v -18 -41 0
v -12 -43 0
v -13 -43 0
v -13 -42 0
v -12 -42 0
v -19 -50 0
v -20 -50 0
v -20 -49 0
v -19 -49 0
v -59 -55 0
v -60 -55 0
v -60 -54 0
v -59 -54 0

# Texture cooridinates (Count = 4)
vt 0 0
vt 1 0
vt 1 1
vt 0 1

# Normal
vn 0 0 -1

# Mesh description
g Beta_mesh_0036

# Faces
f 1/1/1 2/2/1 3/3/1 4/4/1
f 5/1/1 6/2/1 7/3/1 8/4/1
f 9/1/1 10/2/1 11/3/1 12/4/1
f 13/1/1 14/2/1 15/3/1 16/4/1

