# Tiled2Unity generated file. Do not modify by hand.
# Wavefront file for 'Beta_mesh_0007.obj'

# Vertices (Count = 744)
v -86 -4 0
v -87 -4 0
v -87 -3 0
v -86 -3 0
v -21 -4 0
v -22 -4 0
v -22 -3 0
v -21 -3 0
v -12 -4 0
v -13 -4 0
v -13 -3 0
v -12 -3 0
v -4 -4 0
v -5 -4 0
v -5 -3 0
v -4 -3 0
v -57 -5 0
v -58 -5 0
v -58 -4 0
v -57 -4 0
v -26 -5 0
v -27 -5 0
v -27 -4 0
v -26 -4 0
v -74 -6 0
v -75 -6 0
v -75 -5 0
v -74 -5 0
v -18 -6 0
v -19 -6 0
v -19 -5 0
v -18 -5 0
v -1 -6 0
v -2 -6 0
v -2 -5 0
v -1 -5 0
v -90 -7 0
v -91 -7 0
v -91 -6 0
v -90 -6 0
v -89 -7 0
v -90 -7 0
v -90 -6 0
v -89 -6 0
v -78 -7 0
v -79 -7 0
v -79 -6 0
v -78 -6 0
v -58 -7 0
v -59 -7 0
v -59 -6 0
v -58 -6 0
v -50 -7 0
v -51 -7 0
v -51 -6 0
v -50 -6 0
v -16 -7 0
v -17 -7 0
v -17 -6 0
v -16 -6 0
v -2 -7 0
v -3 -7 0
v -3 -6 0
v -2 -6 0
v -92 -8 0
v -93 -8 0
v -93 -7 0
v -92 -7 0
v -81 -8 0
v -82 -8 0
v -82 -7 0
v -81 -7 0
v -55 -8 0
v -56 -8 0
v -56 -7 0
v -55 -7 0
v -85 -9 0
v -86 -9 0
v -86 -8 0
v -85 -8 0
v -74 -9 0
v -75 -9 0
v -75 -8 0
v -74 -8 0
v -6 -9 0
v -7 -9 0
v -7 -8 0
v -6 -8 0
v -95 -10 0
v -96 -10 0
v -96 -9 0
v -95 -9 0
v -62 -10 0
v -63 -10 0
v -63 -9 0
v -62 -9 0
v -52 -10 0
v -53 -10 0
v -53 -9 0
v -52 -9 0
v -49 -10 0
v -50 -10 0
v -50 -9 0
v -49 -9 0
v -35 -10 0
v -36 -10 0
v -36 -9 0
v -35 -9 0
v -29 -10 0
v -30 -10 0
v -30 -9 0
v -29 -9 0
v -69 -11 0
v -70 -11 0
v -70 -10 0
v -69 -10 0
v -65 -11 0
v -66 -11 0
v -66 -10 0
v -65 -10 0
v -8 -11 0
v -9 -11 0
v -9 -10 0
v -8 -10 0
v -69 -12 0
v -70 -12 0
v -70 -11 0
v -69 -11 0
v -27 -12 0
v -28 -12 0
v -28 -11 0
v -27 -11 0
v -84 -13 0
v -85 -13 0
v -85 -12 0
v -84 -12 0
v -55 -13 0
v -56 -13 0
v -56 -12 0
v -55 -12 0
v -44 -13 0
v -45 -13 0
v -45 -12 0
v -44 -12 0
v -39 -13 0
v -40 -13 0
v -40 -12 0
v -39 -12 0
v -9 -13 0
v -10 -13 0
v -10 -12 0
v -9 -12 0
v -48 -14 0
v -49 -14 0
v -49 -13 0
v -48 -13 0
v -7 -14 0
v -8 -14 0
v -8 -13 0
v -7 -13 0
v -3 -14 0
v -4 -14 0
v -4 -13 0
v -3 -13 0
v -62 -15 0
v -63 -15 0
v -63 -14 0
v -62 -14 0
v -50 -16 0
v -51 -16 0
v -51 -15 0
v -50 -15 0
v -26 -16 0
v -27 -16 0
v -27 -15 0
v -26 -15 0
v -97 -17 0
v -98 -17 0
v -98 -16 0
v -97 -16 0
v -39 -17 0
v -40 -17 0
v -40 -16 0
v -39 -16 0
v -30 -17 0
v -31 -17 0
v -31 -16 0
v -30 -16 0
v -18 -17 0
v -19 -17 0
v -19 -16 0
v -18 -16 0
v -10 -17 0
v -11 -17 0
v -11 -16 0
v -10 -16 0
v -20 -18 0
v -21 -18 0
v -21 -17 0
v -20 -17 0
v -7 -18 0
v -8 -18 0
v -8 -17 0
v -7 -17 0
v -68 -19 0
v -69 -19 0
v -69 -18 0
v -68 -18 0
v -15 -19 0
v -16 -19 0
v -16 -18 0
v -15 -18 0
v -87 -20 0
v -88 -20 0
v -88 -19 0
v -87 -19 0
v -98 -22 0
v -99 -22 0
v -99 -21 0
v -98 -21 0
v -94 -22 0
v -95 -22 0
v -95 -21 0
v -94 -21 0
v -69 -22 0
v -70 -22 0
v -70 -21 0
v -69 -21 0
v -39 -22 0
v -40 -22 0
v -40 -21 0
v -39 -21 0
v -33 -22 0
v -34 -22 0
v -34 -21 0
v -33 -21 0
v -56 -23 0
v -57 -23 0
v -57 -22 0
v -56 -22 0
v -5 -23 0
v -6 -23 0
v -6 -22 0
v -5 -22 0
v -84 -24 0
v -85 -24 0
v -85 -23 0
v -84 -23 0
v -79 -24 0
v -80 -24 0
v -80 -23 0
v -79 -23 0
v -64 -24 0
v -65 -24 0
v -65 -23 0
v -64 -23 0
v -29 -24 0
v -30 -24 0
v -30 -23 0
v -29 -23 0
v -7 -24 0
v -8 -24 0
v -8 -23 0
v -7 -23 0
v -69 -26 0
v -70 -26 0
v -70 -25 0
v -69 -25 0
v -37 -26 0
v -38 -26 0
v -38 -25 0
v -37 -25 0
v -27 -26 0
v -28 -26 0
v -28 -25 0
v -27 -25 0
v -94 -27 0
v -95 -27 0
v -95 -26 0
v -94 -26 0
v -90 -27 0
v -91 -27 0
v -91 -26 0
v -90 -26 0
v -84 -27 0
v -85 -27 0
v -85 -26 0
v -84 -26 0
v -78 -27 0
v -79 -27 0
v -79 -26 0
v -78 -26 0
v -11 -27 0
v -12 -27 0
v -12 -26 0
v -11 -26 0
v -97 -29 0
v -98 -29 0
v -98 -28 0
v -97 -28 0
v -81 -29 0
v -82 -29 0
v -82 -28 0
v -81 -28 0
v -28 -29 0
v -29 -29 0
v -29 -28 0
v -28 -28 0
v -20 -30 0
v -21 -30 0
v -21 -29 0
v -20 -29 0
v -87 -31 0
v -88 -31 0
v -88 -30 0
v -87 -30 0
v -78 -31 0
v -79 -31 0
v -79 -30 0
v -78 -30 0
v -44 -31 0
v -45 -31 0
v -45 -30 0
v -44 -30 0
v -27 -31 0
v -28 -31 0
v -28 -30 0
v -27 -30 0
v -16 -32 0
v -17 -32 0
v -17 -31 0
v -16 -31 0
v -72 -33 0
v -73 -33 0
v -73 -32 0
v -72 -32 0
v -29 -33 0
v -30 -33 0
v -30 -32 0
v -29 -32 0
v -22 -33 0
v -23 -33 0
v -23 -32 0
v -22 -32 0
v -8 -33 0
v -9 -33 0
v -9 -32 0
v -8 -32 0
v -96 -36 0
v -97 -36 0
v -97 -35 0
v -96 -35 0
v -88 -36 0
v -89 -36 0
v -89 -35 0
v -88 -35 0
v -90 -37 0
v -91 -37 0
v -91 -36 0
v -90 -36 0
v -79 -37 0
v -80 -37 0
v -80 -36 0
v -79 -36 0
v -75 -37 0
v -76 -37 0
v -76 -36 0
v -75 -36 0
v -44 -37 0
v -45 -37 0
v -45 -36 0
v -44 -36 0
v -29 -37 0
v -30 -37 0
v -30 -36 0
v -29 -36 0
v -19 -37 0
v -20 -37 0
v -20 -36 0
v -19 -36 0
v -12 -37 0
v -13 -37 0
v -13 -36 0
v -12 -36 0
v -2 -38 0
v -3 -38 0
v -3 -37 0
v -2 -37 0
v -86 -39 0
v -87 -39 0
v -87 -38 0
v -86 -38 0
v -82 -39 0
v -83 -39 0
v -83 -38 0
v -82 -38 0
v -39 -39 0
v -40 -39 0
v -40 -38 0
v -39 -38 0
v -27 -39 0
v -28 -39 0
v -28 -38 0
v -27 -38 0
v -22 -39 0
v -23 -39 0
v -23 -38 0
v -22 -38 0
v -4 -40 0
v -5 -40 0
v -5 -39 0
v -4 -39 0
v -45 -41 0
v -46 -41 0
v -46 -40 0
v -45 -40 0
v -97 -42 0
v -98 -42 0
v -98 -41 0
v -97 -41 0
v -87 -42 0
v -88 -42 0
v -88 -41 0
v -87 -41 0
v -70 -42 0
v -71 -42 0
v -71 -41 0
v -70 -41 0
v -30 -43 0
v -31 -43 0
v -31 -42 0
v -30 -42 0
v -16 -43 0
v -17 -43 0
v -17 -42 0
v -16 -42 0
v -92 -44 0
v -93 -44 0
v -93 -43 0
v -92 -43 0
v -86 -44 0
v -87 -44 0
v -87 -43 0
v -86 -43 0
v -23 -44 0
v -24 -44 0
v -24 -43 0
v -23 -43 0
v -36 -45 0
v -37 -45 0
v -37 -44 0
v -36 -44 0
v -26 -45 0
v -27 -45 0
v -27 -44 0
v -26 -44 0
v -80 -46 0
v -81 -46 0
v -81 -45 0
v -80 -45 0
v -59 -46 0
v -60 -46 0
v -60 -45 0
v -59 -45 0
v -34 -46 0
v -35 -46 0
v -35 -45 0
v -34 -45 0
v -10 -46 0
v -11 -46 0
v -11 -45 0
v -10 -45 0
v -7 -46 0
v -8 -46 0
v -8 -45 0
v -7 -45 0
v -96 -47 0
v -97 -47 0
v -97 -46 0
v -96 -46 0
v -15 -48 0
v -16 -48 0
v -16 -47 0
v -15 -47 0
v -66 -50 0
v -67 -50 0
v -67 -49 0
v -66 -49 0
v -63 -50 0
v -64 -50 0
v -64 -49 0
v -63 -49 0
v -97 -51 0
v -98 -51 0
v -98 -50 0
v -97 -50 0
v -61 -51 0
v -62 -51 0
v -62 -50 0
v -61 -50 0
v -36 -51 0
v -37 -51 0
v -37 -50 0
v -36 -50 0
v -9 -51 0
v -10 -51 0
v -10 -50 0
v -9 -50 0
v -53 -52 0
v -54 -52 0
v -54 -51 0
v -53 -51 0
v -33 -52 0
v -34 -52 0
v -34 -51 0
v -33 -51 0
v -14 -52 0
v -15 -52 0
v -15 -51 0
v -14 -51 0
v -82 -53 0
v -83 -53 0
v -83 -52 0
v -82 -52 0
v -56 -53 0
v -57 -53 0
v -57 -52 0
v -56 -52 0
v -16 -53 0
v -17 -53 0
v -17 -52 0
v -16 -52 0
v -11 -53 0
v -12 -53 0
v -12 -52 0
v -11 -52 0
v -7 -53 0
v -8 -53 0
v -8 -52 0
v -7 -52 0
v -61 -54 0
v -62 -54 0
v -62 -53 0
v -61 -53 0
v -42 -54 0
v -43 -54 0
v -43 -53 0
v -42 -53 0
v -96 -55 0
v -97 -55 0
v -97 -54 0
v -96 -54 0
v -87 -55 0
v -88 -55 0
v -88 -54 0
v -87 -54 0
v -19 -55 0
v -20 -55 0
v -20 -54 0
v -19 -54 0
v -67 -56 0
v -68 -56 0
v -68 -55 0
v -67 -55 0
v -64 -57 0
v -65 -57 0
v -65 -56 0
v -64 -56 0
v -56 -57 0
v -57 -57 0
v -57 -56 0
v -56 -56 0
v -54 -57 0
v -55 -57 0
v -55 -56 0
v -54 -56 0
v -51 -57 0
v -52 -57 0
v -52 -56 0
v -51 -56 0
v -14 -57 0
v -15 -57 0
v -15 -56 0
v -14 -56 0
v -77 -58 0
v -78 -58 0
v -78 -57 0
v -77 -57 0
v -18 -58 0
v -19 -58 0
v -19 -57 0
v -18 -57 0
v -57 -59 0
v -58 -59 0
v -58 -58 0
v -57 -58 0
v -53 -59 0
v -54 -59 0
v -54 -58 0
v -53 -58 0
v -48 -59 0
v -49 -59 0
v -49 -58 0
v -48 -58 0
v -35 -59 0
v -36 -59 0
v -36 -58 0
v -35 -58 0
v -35 -60 0
v -36 -60 0
v -36 -59 0
v -35 -59 0
v -31 -60 0
v -32 -60 0
v -32 -59 0
v -31 -59 0
v -15 -60 0
v -16 -60 0
v -16 -59 0
v -15 -59 0
v -89 -61 0
v -90 -61 0
v -90 -60 0
v -89 -60 0
v -59 -61 0
v -60 -61 0
v -60 -60 0
v -59 -60 0
v -55 -61 0
v -56 -61 0
v -56 -60 0
v -55 -60 0
v -49 -61 0
v -50 -61 0
v -50 -60 0
v -49 -60 0
v -19 -61 0
v -20 -61 0
v -20 -60 0
v -19 -60 0
v -28 -62 0
v -29 -62 0
v -29 -61 0
v -28 -61 0
v -25 -63 0
v -26 -63 0
v -26 -62 0
v -25 -62 0
v -71 -65 0
v -72 -65 0
v -72 -64 0
v -71 -64 0
v -42 -65 0
v -43 -65 0
v -43 -64 0
v -42 -64 0
v -38 -65 0
v -39 -65 0
v -39 -64 0
v -38 -64 0
v -48 -66 0
v -49 -66 0
v -49 -65 0
v -48 -65 0
v -27 -66 0
v -28 -66 0
v -28 -65 0
v -27 -65 0
v -73 -67 0
v -74 -67 0
v -74 -66 0
v -73 -66 0
v -50 -67 0
v -51 -67 0
v -51 -66 0
v -50 -66 0
v -92 -68 0
v -93 -68 0
v -93 -67 0
v -92 -67 0
v -76 -68 0
v -77 -68 0
v -77 -67 0
v -76 -67 0
v -40 -68 0
v -41 -68 0
v -41 -67 0
v -40 -67 0
v -25 -68 0
v -26 -68 0
v -26 -67 0
v -25 -67 0
v -95 -69 0
v -96 -69 0
v -96 -68 0
v -95 -68 0
v -86 -69 0
v -87 -69 0
v -87 -68 0
v -86 -68 0
v -78 -69 0
v -79 -69 0
v -79 -68 0
v -78 -68 0
v -70 -69 0
v -71 -69 0
v -71 -68 0
v -70 -68 0
v -38 -70 0
v -39 -70 0
v -39 -69 0
v -38 -69 0
v -23 -70 0
v -24 -70 0
v -24 -69 0
v -23 -69 0
v -17 -70 0
v -18 -70 0
v -18 -69 0
v -17 -69 0
v -13 -70 0
v -14 -70 0
v -14 -69 0
v -13 -69 0
v -91 -71 0
v -92 -71 0
v -92 -70 0
v -91 -70 0
v -20 -71 0
v -21 -71 0
v -21 -70 0
v -20 -70 0
v -72 -72 0
v -73 -72 0
v -73 -71 0
v -72 -71 0
v -14 -72 0
v -15 -72 0
v -15 -71 0
v -14 -71 0
v -16 -73 0
v -17 -73 0
v -17 -72 0
v -16 -72 0

# Texture cooridinates (Count = 4)
vt 0 0
vt 1 0
vt 1 1
vt 0 1

# Normal
vn 0 0 -1

# Mesh description
g Beta_mesh_0007

# Faces
f 1/1/1 2/2/1 3/3/1 4/4/1
f 5/1/1 6/2/1 7/3/1 8/4/1
f 9/1/1 10/2/1 11/3/1 12/4/1
f 13/1/1 14/2/1 15/3/1 16/4/1
f 17/1/1 18/2/1 19/3/1 20/4/1
f 21/1/1 22/2/1 23/3/1 24/4/1
f 25/1/1 26/2/1 27/3/1 28/4/1
f 29/1/1 30/2/1 31/3/1 32/4/1
f 33/1/1 34/2/1 35/3/1 36/4/1
f 37/1/1 38/2/1 39/3/1 40/4/1
f 41/1/1 42/2/1 43/3/1 44/4/1
f 45/1/1 46/2/1 47/3/1 48/4/1
f 49/1/1 50/2/1 51/3/1 52/4/1
f 53/1/1 54/2/1 55/3/1 56/4/1
f 57/1/1 58/2/1 59/3/1 60/4/1
f 61/1/1 62/2/1 63/3/1 64/4/1
f 65/1/1 66/2/1 67/3/1 68/4/1
f 69/1/1 70/2/1 71/3/1 72/4/1
f 73/1/1 74/2/1 75/3/1 76/4/1
f 77/1/1 78/2/1 79/3/1 80/4/1
f 81/1/1 82/2/1 83/3/1 84/4/1
f 85/1/1 86/2/1 87/3/1 88/4/1
f 89/1/1 90/2/1 91/3/1 92/4/1
f 93/1/1 94/2/1 95/3/1 96/4/1
f 97/1/1 98/2/1 99/3/1 100/4/1
f 101/1/1 102/2/1 103/3/1 104/4/1
f 105/1/1 106/2/1 107/3/1 108/4/1
f 109/1/1 110/2/1 111/3/1 112/4/1
f 113/1/1 114/2/1 115/3/1 116/4/1
f 117/1/1 118/2/1 119/3/1 120/4/1
f 121/1/1 122/2/1 123/3/1 124/4/1
f 125/1/1 126/2/1 127/3/1 128/4/1
f 129/1/1 130/2/1 131/3/1 132/4/1
f 133/1/1 134/2/1 135/3/1 136/4/1
f 137/1/1 138/2/1 139/3/1 140/4/1
f 141/1/1 142/2/1 143/3/1 144/4/1
f 145/1/1 146/2/1 147/3/1 148/4/1
f 149/1/1 150/2/1 151/3/1 152/4/1
f 153/1/1 154/2/1 155/3/1 156/4/1
f 157/1/1 158/2/1 159/3/1 160/4/1
f 161/1/1 162/2/1 163/3/1 164/4/1
f 165/1/1 166/2/1 167/3/1 168/4/1
f 169/1/1 170/2/1 171/3/1 172/4/1
f 173/1/1 174/2/1 175/3/1 176/4/1
f 177/2/1 178/3/1 179/4/1 180/1/1
f 181/1/1 182/2/1 183/3/1 184/4/1
f 185/1/1 186/2/1 187/3/1 188/4/1
f 189/1/1 190/2/1 191/3/1 192/4/1
f 193/1/1 194/2/1 195/3/1 196/4/1
f 197/1/1 198/2/1 199/3/1 200/4/1
f 201/1/1 202/2/1 203/3/1 204/4/1
f 205/1/1 206/2/1 207/3/1 208/4/1
f 209/1/1 210/2/1 211/3/1 212/4/1
f 213/1/1 214/2/1 215/3/1 216/4/1
f 217/1/1 218/2/1 219/3/1 220/4/1
f 221/1/1 222/2/1 223/3/1 224/4/1
f 225/1/1 226/2/1 227/3/1 228/4/1
f 229/1/1 230/2/1 231/3/1 232/4/1
f 233/1/1 234/2/1 235/3/1 236/4/1
f 237/1/1 238/2/1 239/3/1 240/4/1
f 241/1/1 242/2/1 243/3/1 244/4/1
f 245/1/1 246/2/1 247/3/1 248/4/1
f 249/1/1 250/2/1 251/3/1 252/4/1
f 253/1/1 254/2/1 255/3/1 256/4/1
f 257/1/1 258/2/1 259/3/1 260/4/1
f 261/1/1 262/2/1 263/3/1 264/4/1
f 265/1/1 266/2/1 267/3/1 268/4/1
f 269/1/1 270/2/1 271/3/1 272/4/1
f 273/1/1 274/2/1 275/3/1 276/4/1
f 277/1/1 278/2/1 279/3/1 280/4/1
f 281/1/1 282/2/1 283/3/1 284/4/1
f 285/1/1 286/2/1 287/3/1 288/4/1
f 289/1/1 290/2/1 291/3/1 292/4/1
f 293/1/1 294/2/1 295/3/1 296/4/1
f 297/1/1 298/2/1 299/3/1 300/4/1
f 301/1/1 302/2/1 303/3/1 304/4/1
f 305/1/1 306/2/1 307/3/1 308/4/1
f 309/4/1 310/3/1 311/2/1 312/1/1
f 313/1/1 314/2/1 315/3/1 316/4/1
f 317/1/1 318/2/1 319/3/1 320/4/1
f 321/1/1 322/2/1 323/3/1 324/4/1
f 325/1/1 326/2/1 327/3/1 328/4/1
f 329/4/1 330/3/1 331/2/1 332/1/1
f 333/1/1 334/2/1 335/3/1 336/4/1
f 337/1/1 338/2/1 339/3/1 340/4/1
f 341/1/1 342/2/1 343/3/1 344/4/1
f 345/4/1 346/3/1 347/2/1 348/1/1
f 349/1/1 350/2/1 351/3/1 352/4/1
f 353/1/1 354/2/1 355/3/1 356/4/1
f 357/1/1 358/2/1 359/3/1 360/4/1
f 361/1/1 362/2/1 363/3/1 364/4/1
f 365/1/1 366/2/1 367/3/1 368/4/1
f 369/1/1 370/2/1 371/3/1 372/4/1
f 373/1/1 374/2/1 375/3/1 376/4/1
f 377/4/1 378/3/1 379/2/1 380/1/1
f 381/1/1 382/2/1 383/3/1 384/4/1
f 385/4/1 386/3/1 387/2/1 388/1/1
f 389/1/1 390/2/1 391/3/1 392/4/1
f 393/1/1 394/2/1 395/3/1 396/4/1
f 397/1/1 398/2/1 399/3/1 400/4/1
f 401/1/1 402/2/1 403/3/1 404/4/1
f 405/1/1 406/2/1 407/3/1 408/4/1
f 409/4/1 410/3/1 411/2/1 412/1/1
f 413/1/1 414/2/1 415/3/1 416/4/1
f 417/1/1 418/2/1 419/3/1 420/4/1
f 421/1/1 422/2/1 423/3/1 424/4/1
f 425/1/1 426/2/1 427/3/1 428/4/1
f 429/1/1 430/2/1 431/3/1 432/4/1
f 433/4/1 434/3/1 435/2/1 436/1/1
f 437/1/1 438/2/1 439/3/1 440/4/1
f 441/1/1 442/2/1 443/3/1 444/4/1
f 445/4/1 446/3/1 447/2/1 448/1/1
f 449/1/1 450/2/1 451/3/1 452/4/1
f 453/1/1 454/2/1 455/3/1 456/4/1
f 457/1/1 458/2/1 459/3/1 460/4/1
f 461/1/1 462/2/1 463/3/1 464/4/1
f 465/1/1 466/2/1 467/3/1 468/4/1
f 469/4/1 470/3/1 471/2/1 472/1/1
f 473/4/1 474/3/1 475/2/1 476/1/1
f 477/1/1 478/2/1 479/3/1 480/4/1
f 481/4/1 482/3/1 483/2/1 484/1/1
f 485/1/1 486/2/1 487/3/1 488/4/1
f 489/1/1 490/2/1 491/3/1 492/4/1
f 493/1/1 494/2/1 495/3/1 496/4/1
f 497/1/1 498/2/1 499/3/1 500/4/1
f 501/1/1 502/2/1 503/3/1 504/4/1
f 505/1/1 506/2/1 507/3/1 508/4/1
f 509/1/1 510/2/1 511/3/1 512/4/1
f 513/1/1 514/2/1 515/3/1 516/4/1
f 517/1/1 518/2/1 519/3/1 520/4/1
f 521/1/1 522/2/1 523/3/1 524/4/1
f 525/1/1 526/2/1 527/3/1 528/4/1
f 529/1/1 530/2/1 531/3/1 532/4/1
f 533/1/1 534/2/1 535/3/1 536/4/1
f 537/1/1 538/2/1 539/3/1 540/4/1
f 541/1/1 542/2/1 543/3/1 544/4/1
f 545/1/1 546/2/1 547/3/1 548/4/1
f 549/1/1 550/2/1 551/3/1 552/4/1
f 553/1/1 554/2/1 555/3/1 556/4/1
f 557/1/1 558/2/1 559/3/1 560/4/1
f 561/1/1 562/2/1 563/3/1 564/4/1
f 565/1/1 566/2/1 567/3/1 568/4/1
f 569/1/1 570/2/1 571/3/1 572/4/1
f 573/1/1 574/2/1 575/3/1 576/4/1
f 577/1/1 578/2/1 579/3/1 580/4/1
f 581/1/1 582/2/1 583/3/1 584/4/1
f 585/1/1 586/2/1 587/3/1 588/4/1
f 589/1/1 590/2/1 591/3/1 592/4/1
f 593/1/1 594/2/1 595/3/1 596/4/1
f 597/1/1 598/2/1 599/3/1 600/4/1
f 601/1/1 602/2/1 603/3/1 604/4/1
f 605/1/1 606/2/1 607/3/1 608/4/1
f 609/1/1 610/2/1 611/3/1 612/4/1
f 613/1/1 614/2/1 615/3/1 616/4/1
f 617/1/1 618/2/1 619/3/1 620/4/1
f 621/1/1 622/2/1 623/3/1 624/4/1
f 625/1/1 626/2/1 627/3/1 628/4/1
f 629/1/1 630/2/1 631/3/1 632/4/1
f 633/1/1 634/2/1 635/3/1 636/4/1
f 637/1/1 638/2/1 639/3/1 640/4/1
f 641/1/1 642/2/1 643/3/1 644/4/1
f 645/1/1 646/2/1 647/3/1 648/4/1
f 649/1/1 650/2/1 651/3/1 652/4/1
f 653/1/1 654/2/1 655/3/1 656/4/1
f 657/1/1 658/2/1 659/3/1 660/4/1
f 661/1/1 662/2/1 663/3/1 664/4/1
f 665/1/1 666/2/1 667/3/1 668/4/1
f 669/1/1 670/2/1 671/3/1 672/4/1
f 673/1/1 674/2/1 675/3/1 676/4/1
f 677/1/1 678/2/1 679/3/1 680/4/1
f 681/1/1 682/2/1 683/3/1 684/4/1
f 685/1/1 686/2/1 687/3/1 688/4/1
f 689/1/1 690/2/1 691/3/1 692/4/1
f 693/1/1 694/2/1 695/3/1 696/4/1
f 697/1/1 698/2/1 699/3/1 700/4/1
f 701/1/1 702/2/1 703/3/1 704/4/1
f 705/1/1 706/2/1 707/3/1 708/4/1
f 709/1/1 710/2/1 711/3/1 712/4/1
f 713/1/1 714/2/1 715/3/1 716/4/1
f 717/1/1 718/2/1 719/3/1 720/4/1
f 721/1/1 722/2/1 723/3/1 724/4/1
f 725/1/1 726/2/1 727/3/1 728/4/1
f 729/1/1 730/2/1 731/3/1 732/4/1
f 733/1/1 734/2/1 735/3/1 736/4/1
f 737/1/1 738/2/1 739/3/1 740/4/1
f 741/1/1 742/2/1 743/3/1 744/4/1

