# Tiled2Unity generated file. Do not modify by hand.
# Wavefront file for 'Beta_mesh_0002.obj'

# Vertices (Count = 676)
v -28 -2 0
v -29 -2 0
v -29 -1 0
v -28 -1 0
v -15 -2 0
v -16 -2 0
v -16 -1 0
v -15 -1 0
v -7 -2 0
v -8 -2 0
v -8 -1 0
v -7 -1 0
v -78 -3 0
v -79 -3 0
v -79 -2 0
v -78 -2 0
v -74 -3 0
v -75 -3 0
v -75 -2 0
v -74 -2 0
v -24 -3 0
v -25 -3 0
v -25 -2 0
v -24 -2 0
v -1 -3 0
v -2 -3 0
v -2 -2 0
v -1 -2 0
v -82 -4 0
v -83 -4 0
v -83 -3 0
v -82 -3 0
v -91 -5 0
v -92 -5 0
v -92 -4 0
v -91 -4 0
v -60 -5 0
v -61 -5 0
v -61 -4 0
v -60 -4 0
v -47 -5 0
v -48 -5 0
v -48 -4 0
v -47 -4 0
v -84 -6 0
v -85 -6 0
v -85 -5 0
v -84 -5 0
v -71 -7 0
v -72 -7 0
v -72 -6 0
v -71 -6 0
v -70 -8 0
v -71 -8 0
v -71 -7 0
v -70 -7 0
v -33 -8 0
v -34 -8 0
v -34 -7 0
v -33 -7 0
v -17 -8 0
v -18 -8 0
v -18 -7 0
v -17 -7 0
v -2 -8 0
v -3 -8 0
v -3 -7 0
v -2 -7 0
v -93 -9 0
v -94 -9 0
v -94 -8 0
v -93 -8 0
v -83 -9 0
v -84 -9 0
v -84 -8 0
v -83 -8 0
v -81 -9 0
v -82 -9 0
v -82 -8 0
v -81 -8 0
v -25 -9 0
v -26 -9 0
v -26 -8 0
v -25 -8 0
v -7 -9 0
v -8 -9 0
v -8 -8 0
v -7 -8 0
v -55 -10 0
v -56 -10 0
v -56 -9 0
v -55 -9 0
v -36 -10 0
v -37 -10 0
v -37 -9 0
v -36 -9 0
v -40 -11 0
v -41 -11 0
v -41 -10 0
v -40 -10 0
v -28 -11 0
v -29 -11 0
v -29 -10 0
v -28 -10 0
v -97 -12 0
v -98 -12 0
v -98 -11 0
v -97 -11 0
v -64 -12 0
v -65 -12 0
v -65 -11 0
v -64 -11 0
v -47 -12 0
v -48 -12 0
v -48 -11 0
v -47 -11 0
v -2 -12 0
v -3 -12 0
v -3 -11 0
v -2 -11 0
v -90 -13 0
v -91 -13 0
v -91 -12 0
v -90 -12 0
v -85 -14 0
v -86 -14 0
v -86 -13 0
v -85 -13 0
v -32 -14 0
v -33 -14 0
v -33 -13 0
v -32 -13 0
v -94 -15 0
v -95 -15 0
v -95 -14 0
v -94 -14 0
v -42 -15 0
v -43 -15 0
v -43 -14 0
v -42 -14 0
v -17 -15 0
v -18 -15 0
v -18 -14 0
v -17 -14 0
v -87 -16 0
v -88 -16 0
v -88 -15 0
v -87 -15 0
v -20 -16 0
v -21 -16 0
v -21 -15 0
v -20 -15 0
v -7 -16 0
v -8 -16 0
v -8 -15 0
v -7 -15 0
v -94 -17 0
v -95 -17 0
v -95 -16 0
v -94 -16 0
v -57 -17 0
v -58 -17 0
v -58 -16 0
v -57 -16 0
v -26 -17 0
v -27 -17 0
v -27 -16 0
v -26 -16 0
v 0 -17 0
v -1 -17 0
v -1 -16 0
v 0 -16 0
v -97 -18 0
v -98 -18 0
v -98 -17 0
v -97 -17 0
v -82 -18 0
v -83 -18 0
v -83 -17 0
v -82 -17 0
v -11 -18 0
v -12 -18 0
v -12 -17 0
v -11 -17 0
v -8 -19 0
v -9 -19 0
v -9 -18 0
v -8 -18 0
v -95 -20 0
v -96 -20 0
v -96 -19 0
v -95 -19 0
v -32 -20 0
v -33 -20 0
v -33 -19 0
v -32 -19 0
v -1 -20 0
v -2 -20 0
v -2 -19 0
v -1 -19 0
v -79 -21 0
v -80 -21 0
v -80 -20 0
v -79 -20 0
v -63 -21 0
v -64 -21 0
v -64 -20 0
v -63 -20 0
v -36 -21 0
v -37 -21 0
v -37 -20 0
v -36 -20 0
v -28 -21 0
v -29 -21 0
v -29 -20 0
v -28 -20 0
v -83 -22 0
v -84 -22 0
v -84 -21 0
v -83 -21 0
v -10 -22 0
v -11 -22 0
v -11 -21 0
v -10 -21 0
v -95 -23 0
v -96 -23 0
v -96 -22 0
v -95 -22 0
v -89 -23 0
v -90 -23 0
v -90 -22 0
v -89 -22 0
v -76 -23 0
v -77 -23 0
v -77 -22 0
v -76 -22 0
v -37 -23 0
v -38 -23 0
v -38 -22 0
v -37 -22 0
v -87 -24 0
v -88 -24 0
v -88 -23 0
v -87 -23 0
v -45 -24 0
v -46 -24 0
v -46 -23 0
v -45 -23 0
v -26 -24 0
v -27 -24 0
v -27 -23 0
v -26 -23 0
v -56 -25 0
v -57 -25 0
v -57 -24 0
v -56 -24 0
v -51 -25 0
v -52 -25 0
v -52 -24 0
v -51 -24 0
v -96 -26 0
v -97 -26 0
v -97 -25 0
v -96 -25 0
v -59 -26 0
v -60 -26 0
v -60 -25 0
v -59 -25 0
v -43 -26 0
v -44 -26 0
v -44 -25 0
v -43 -25 0
v -31 -26 0
v -32 -26 0
v -32 -25 0
v -31 -25 0
v -28 -26 0
v -29 -26 0
v -29 -25 0
v -28 -25 0
v -5 -26 0
v -6 -26 0
v -6 -25 0
v -5 -25 0
v -90 -28 0
v -91 -28 0
v -91 -27 0
v -90 -27 0
v -84 -28 0
v -85 -28 0
v -85 -27 0
v -84 -27 0
v -17 -28 0
v -18 -28 0
v -18 -27 0
v -17 -27 0
v -6 -28 0
v -7 -28 0
v -7 -27 0
v -6 -27 0
v -1 -28 0
v -2 -28 0
v -2 -27 0
v -1 -27 0
v -93 -29 0
v -94 -29 0
v -94 -28 0
v -93 -28 0
v -35 -29 0
v -36 -29 0
v -36 -28 0
v -35 -28 0
v -89 -30 0
v -90 -30 0
v -90 -29 0
v -89 -29 0
v -34 -30 0
v -35 -30 0
v -35 -29 0
v -34 -29 0
v -34 -31 0
v -35 -31 0
v -35 -30 0
v -34 -30 0
v -8 -31 0
v -9 -31 0
v -9 -30 0
v -8 -30 0
v -32 -32 0
v -33 -32 0
v -33 -31 0
v -32 -31 0
v -83 -33 0
v -84 -33 0
v -84 -32 0
v -83 -32 0
v -63 -33 0
v -64 -33 0
v -64 -32 0
v -63 -32 0
v -42 -33 0
v -43 -33 0
v -43 -32 0
v -42 -32 0
v -32 -33 0
v -33 -33 0
v -33 -32 0
v -32 -32 0
v -31 -33 0
v -32 -33 0
v -32 -32 0
v -31 -32 0
v -14 -33 0
v -15 -33 0
v -15 -32 0
v -14 -32 0
v -93 -34 0
v -94 -34 0
v -94 -33 0
v -93 -33 0
v -58 -34 0
v -59 -34 0
v -59 -33 0
v -58 -33 0
v -97 -35 0
v -98 -35 0
v -98 -34 0
v -97 -34 0
v -66 -36 0
v -67 -36 0
v -67 -35 0
v -66 -35 0
v -47 -36 0
v -48 -36 0
v -48 -35 0
v -47 -35 0
v -4 -36 0
v -5 -36 0
v -5 -35 0
v -4 -35 0
v -41 -37 0
v -42 -37 0
v -42 -36 0
v -41 -36 0
v -72 -38 0
v -73 -38 0
v -73 -37 0
v -72 -37 0
v -53 -38 0
v -54 -38 0
v -54 -37 0
v -53 -37 0
v -51 -38 0
v -52 -38 0
v -52 -37 0
v -51 -37 0
v -36 -38 0
v -37 -38 0
v -37 -37 0
v -36 -37 0
v -61 -39 0
v -62 -39 0
v -62 -38 0
v -61 -38 0
v -58 -39 0
v -59 -39 0
v -59 -38 0
v -58 -38 0
v -94 -40 0
v -95 -40 0
v -95 -39 0
v -94 -39 0
v -69 -40 0
v -70 -40 0
v -70 -39 0
v -69 -39 0
v -48 -40 0
v -49 -40 0
v -49 -39 0
v -48 -39 0
v -42 -40 0
v -43 -40 0
v -43 -39 0
v -42 -39 0
v -29 -40 0
v -30 -40 0
v -30 -39 0
v -29 -39 0
v -23 -40 0
v -24 -40 0
v -24 -39 0
v -23 -39 0
v -1 -40 0
v -2 -40 0
v -2 -39 0
v -1 -39 0
v -94 -41 0
v -95 -41 0
v -95 -40 0
v -94 -40 0
v -84 -42 0
v -85 -42 0
v -85 -41 0
v -84 -41 0
v -76 -42 0
v -77 -42 0
v -77 -41 0
v -76 -41 0
v -61 -42 0
v -62 -42 0
v -62 -41 0
v -61 -41 0
v -21 -42 0
v -22 -42 0
v -22 -41 0
v -21 -41 0
v -71 -43 0
v -72 -43 0
v -72 -42 0
v -71 -42 0
v -60 -43 0
v -61 -43 0
v -61 -42 0
v -60 -42 0
v -59 -43 0
v -60 -43 0
v -60 -42 0
v -59 -42 0
v -46 -43 0
v -47 -43 0
v -47 -42 0
v -46 -42 0
v -32 -43 0
v -33 -43 0
v -33 -42 0
v -32 -42 0
v -17 -43 0
v -18 -43 0
v -18 -42 0
v -17 -42 0
v -8 -43 0
v -9 -43 0
v -9 -42 0
v -8 -42 0
v -88 -44 0
v -89 -44 0
v -89 -43 0
v -88 -43 0
v -93 -45 0
v -94 -45 0
v -94 -44 0
v -93 -44 0
v -81 -45 0
v -82 -45 0
v -82 -44 0
v -81 -44 0
v -78 -45 0
v -79 -45 0
v -79 -44 0
v -78 -44 0
v -68 -45 0
v -69 -45 0
v -69 -44 0
v -68 -44 0
v -27 -45 0
v -28 -45 0
v -28 -44 0
v -27 -44 0
v -63 -46 0
v -64 -46 0
v -64 -45 0
v -63 -45 0
v -57 -46 0
v -58 -46 0
v -58 -45 0
v -57 -45 0
v -14 -46 0
v -15 -46 0
v -15 -45 0
v -14 -45 0
v -31 -47 0
v -32 -47 0
v -32 -46 0
v -31 -46 0
v -6 -47 0
v -7 -47 0
v -7 -46 0
v -6 -46 0
v -8 -48 0
v -9 -48 0
v -9 -47 0
v -8 -47 0
v -48 -49 0
v -49 -49 0
v -49 -48 0
v -48 -48 0
v -13 -49 0
v -14 -49 0
v -14 -48 0
v -13 -48 0
v -28 -51 0
v -29 -51 0
v -29 -50 0
v -28 -50 0
v -23 -51 0
v -24 -51 0
v -24 -50 0
v -23 -50 0
v -94 -52 0
v -95 -52 0
v -95 -51 0
v -94 -51 0
v -93 -52 0
v -94 -52 0
v -94 -51 0
v -93 -51 0
v -41 -52 0
v -42 -52 0
v -42 -51 0
v -41 -51 0
v -18 -52 0
v -19 -52 0
v -19 -51 0
v -18 -51 0
v -43 -53 0
v -44 -53 0
v -44 -52 0
v -43 -52 0
v -47 -54 0
v -48 -54 0
v -48 -53 0
v -47 -53 0
v -80 -55 0
v -81 -55 0
v -81 -54 0
v -80 -54 0
v -14 -55 0
v -15 -55 0
v -15 -54 0
v -14 -54 0
v -8 -55 0
v -9 -55 0
v -9 -54 0
v -8 -54 0
v -59 -56 0
v -60 -56 0
v -60 -55 0
v -59 -55 0
v -36 -56 0
v -37 -56 0
v -37 -55 0
v -36 -55 0
v -86 -57 0
v -87 -57 0
v -87 -56 0
v -86 -56 0
v -73 -58 0
v -74 -58 0
v -74 -57 0
v -73 -57 0
v -90 -59 0
v -91 -59 0
v -91 -58 0
v -90 -58 0
v -76 -59 0
v -77 -59 0
v -77 -58 0
v -76 -58 0
v -54 -59 0
v -55 -59 0
v -55 -58 0
v -54 -58 0
v -46 -60 0
v -47 -60 0
v -47 -59 0
v -46 -59 0
v -21 -60 0
v -22 -60 0
v -22 -59 0
v -21 -59 0
v -69 -63 0
v -70 -63 0
v -70 -62 0
v -69 -62 0
v -49 -63 0
v -50 -63 0
v -50 -62 0
v -49 -62 0
v -44 -65 0
v -45 -65 0
v -45 -64 0
v -44 -64 0
v -71 -66 0
v -72 -66 0
v -72 -65 0
v -71 -65 0
v -89 -67 0
v -90 -67 0
v -90 -66 0
v -89 -66 0
v -84 -67 0
v -85 -67 0
v -85 -66 0
v -84 -66 0
v -67 -67 0
v -68 -67 0
v -68 -66 0
v -67 -66 0
v -43 -67 0
v -44 -67 0
v -44 -66 0
v -43 -66 0
v -79 -68 0
v -80 -68 0
v -80 -67 0
v -79 -67 0
v -68 -69 0
v -69 -69 0
v -69 -68 0
v -68 -68 0
v -48 -69 0
v -49 -69 0
v -49 -68 0
v -48 -68 0
v -39 -69 0
v -40 -69 0
v -40 -68 0
v -39 -68 0
v -93 -71 0
v -94 -71 0
v -94 -70 0
v -93 -70 0
v -88 -72 0
v -89 -72 0
v -89 -71 0
v -88 -71 0

# Texture cooridinates (Count = 4)
vt 0 0
vt 1 0
vt 1 1
vt 0 1

# Normal
vn 0 0 -1

# Mesh description
g Beta_mesh_0002

# Faces
f 1/1/1 2/2/1 3/3/1 4/4/1
f 5/1/1 6/2/1 7/3/1 8/4/1
f 9/1/1 10/2/1 11/3/1 12/4/1
f 13/1/1 14/2/1 15/3/1 16/4/1
f 17/1/1 18/2/1 19/3/1 20/4/1
f 21/1/1 22/2/1 23/3/1 24/4/1
f 25/1/1 26/2/1 27/3/1 28/4/1
f 29/1/1 30/2/1 31/3/1 32/4/1
f 33/1/1 34/2/1 35/3/1 36/4/1
f 37/1/1 38/2/1 39/3/1 40/4/1
f 41/1/1 42/2/1 43/3/1 44/4/1
f 45/1/1 46/2/1 47/3/1 48/4/1
f 49/1/1 50/2/1 51/3/1 52/4/1
f 53/1/1 54/2/1 55/3/1 56/4/1
f 57/1/1 58/2/1 59/3/1 60/4/1
f 61/1/1 62/2/1 63/3/1 64/4/1
f 65/1/1 66/2/1 67/3/1 68/4/1
f 69/1/1 70/2/1 71/3/1 72/4/1
f 73/1/1 74/2/1 75/3/1 76/4/1
f 77/1/1 78/2/1 79/3/1 80/4/1
f 81/1/1 82/2/1 83/3/1 84/4/1
f 85/1/1 86/2/1 87/3/1 88/4/1
f 89/1/1 90/2/1 91/3/1 92/4/1
f 93/1/1 94/2/1 95/3/1 96/4/1
f 97/1/1 98/2/1 99/3/1 100/4/1
f 101/1/1 102/2/1 103/3/1 104/4/1
f 105/1/1 106/2/1 107/3/1 108/4/1
f 109/1/1 110/2/1 111/3/1 112/4/1
f 113/1/1 114/2/1 115/3/1 116/4/1
f 117/1/1 118/2/1 119/3/1 120/4/1
f 121/1/1 122/2/1 123/3/1 124/4/1
f 125/1/1 126/2/1 127/3/1 128/4/1
f 129/1/1 130/2/1 131/3/1 132/4/1
f 133/1/1 134/2/1 135/3/1 136/4/1
f 137/1/1 138/2/1 139/3/1 140/4/1
f 141/1/1 142/2/1 143/3/1 144/4/1
f 145/1/1 146/2/1 147/3/1 148/4/1
f 149/1/1 150/2/1 151/3/1 152/4/1
f 153/1/1 154/2/1 155/3/1 156/4/1
f 157/1/1 158/2/1 159/3/1 160/4/1
f 161/1/1 162/2/1 163/3/1 164/4/1
f 165/1/1 166/2/1 167/3/1 168/4/1
f 169/1/1 170/2/1 171/3/1 172/4/1
f 173/1/1 174/2/1 175/3/1 176/4/1
f 177/1/1 178/2/1 179/3/1 180/4/1
f 181/1/1 182/2/1 183/3/1 184/4/1
f 185/1/1 186/2/1 187/3/1 188/4/1
f 189/1/1 190/2/1 191/3/1 192/4/1
f 193/1/1 194/2/1 195/3/1 196/4/1
f 197/1/1 198/2/1 199/3/1 200/4/1
f 201/1/1 202/2/1 203/3/1 204/4/1
f 205/1/1 206/2/1 207/3/1 208/4/1
f 209/1/1 210/2/1 211/3/1 212/4/1
f 213/1/1 214/2/1 215/3/1 216/4/1
f 217/1/1 218/2/1 219/3/1 220/4/1
f 221/1/1 222/2/1 223/3/1 224/4/1
f 225/1/1 226/2/1 227/3/1 228/4/1
f 229/1/1 230/2/1 231/3/1 232/4/1
f 233/1/1 234/2/1 235/3/1 236/4/1
f 237/1/1 238/2/1 239/3/1 240/4/1
f 241/1/1 242/2/1 243/3/1 244/4/1
f 245/1/1 246/2/1 247/3/1 248/4/1
f 249/1/1 250/2/1 251/3/1 252/4/1
f 253/1/1 254/2/1 255/3/1 256/4/1
f 257/1/1 258/2/1 259/3/1 260/4/1
f 261/1/1 262/2/1 263/3/1 264/4/1
f 265/1/1 266/2/1 267/3/1 268/4/1
f 269/1/1 270/2/1 271/3/1 272/4/1
f 273/1/1 274/2/1 275/3/1 276/4/1
f 277/1/1 278/2/1 279/3/1 280/4/1
f 281/1/1 282/2/1 283/3/1 284/4/1
f 285/1/1 286/2/1 287/3/1 288/4/1
f 289/1/1 290/2/1 291/3/1 292/4/1
f 293/1/1 294/2/1 295/3/1 296/4/1
f 297/1/1 298/2/1 299/3/1 300/4/1
f 301/1/1 302/2/1 303/3/1 304/4/1
f 305/1/1 306/2/1 307/3/1 308/4/1
f 309/1/1 310/2/1 311/3/1 312/4/1
f 313/1/1 314/2/1 315/3/1 316/4/1
f 317/1/1 318/2/1 319/3/1 320/4/1
f 321/1/1 322/2/1 323/3/1 324/4/1
f 325/1/1 326/2/1 327/3/1 328/4/1
f 329/1/1 330/2/1 331/3/1 332/4/1
f 333/1/1 334/2/1 335/3/1 336/4/1
f 337/1/1 338/2/1 339/3/1 340/4/1
f 341/1/1 342/2/1 343/3/1 344/4/1
f 345/1/1 346/2/1 347/3/1 348/4/1
f 349/1/1 350/2/1 351/3/1 352/4/1
f 353/1/1 354/2/1 355/3/1 356/4/1
f 357/1/1 358/2/1 359/3/1 360/4/1
f 361/1/1 362/2/1 363/3/1 364/4/1
f 365/1/1 366/2/1 367/3/1 368/4/1
f 369/1/1 370/2/1 371/3/1 372/4/1
f 373/1/1 374/2/1 375/3/1 376/4/1
f 377/1/1 378/2/1 379/3/1 380/4/1
f 381/1/1 382/2/1 383/3/1 384/4/1
f 385/1/1 386/2/1 387/3/1 388/4/1
f 389/1/1 390/2/1 391/3/1 392/4/1
f 393/1/1 394/2/1 395/3/1 396/4/1
f 397/1/1 398/2/1 399/3/1 400/4/1
f 401/1/1 402/2/1 403/3/1 404/4/1
f 405/1/1 406/2/1 407/3/1 408/4/1
f 409/1/1 410/2/1 411/3/1 412/4/1
f 413/1/1 414/2/1 415/3/1 416/4/1
f 417/1/1 418/2/1 419/3/1 420/4/1
f 421/1/1 422/2/1 423/3/1 424/4/1
f 425/1/1 426/2/1 427/3/1 428/4/1
f 429/1/1 430/2/1 431/3/1 432/4/1
f 433/1/1 434/2/1 435/3/1 436/4/1
f 437/1/1 438/2/1 439/3/1 440/4/1
f 441/1/1 442/2/1 443/3/1 444/4/1
f 445/1/1 446/2/1 447/3/1 448/4/1
f 449/1/1 450/2/1 451/3/1 452/4/1
f 453/1/1 454/2/1 455/3/1 456/4/1
f 457/1/1 458/2/1 459/3/1 460/4/1
f 461/1/1 462/2/1 463/3/1 464/4/1
f 465/1/1 466/2/1 467/3/1 468/4/1
f 469/1/1 470/2/1 471/3/1 472/4/1
f 473/1/1 474/2/1 475/3/1 476/4/1
f 477/1/1 478/2/1 479/3/1 480/4/1
f 481/1/1 482/2/1 483/3/1 484/4/1
f 485/1/1 486/2/1 487/3/1 488/4/1
f 489/1/1 490/2/1 491/3/1 492/4/1
f 493/1/1 494/2/1 495/3/1 496/4/1
f 497/1/1 498/2/1 499/3/1 500/4/1
f 501/1/1 502/2/1 503/3/1 504/4/1
f 505/1/1 506/2/1 507/3/1 508/4/1
f 509/1/1 510/2/1 511/3/1 512/4/1
f 513/1/1 514/2/1 515/3/1 516/4/1
f 517/1/1 518/2/1 519/3/1 520/4/1
f 521/1/1 522/2/1 523/3/1 524/4/1
f 525/1/1 526/2/1 527/3/1 528/4/1
f 529/1/1 530/2/1 531/3/1 532/4/1
f 533/1/1 534/2/1 535/3/1 536/4/1
f 537/1/1 538/2/1 539/3/1 540/4/1
f 541/1/1 542/2/1 543/3/1 544/4/1
f 545/1/1 546/2/1 547/3/1 548/4/1
f 549/1/1 550/2/1 551/3/1 552/4/1
f 553/1/1 554/2/1 555/3/1 556/4/1
f 557/1/1 558/2/1 559/3/1 560/4/1
f 561/1/1 562/2/1 563/3/1 564/4/1
f 565/1/1 566/2/1 567/3/1 568/4/1
f 569/1/1 570/2/1 571/3/1 572/4/1
f 573/1/1 574/2/1 575/3/1 576/4/1
f 577/1/1 578/2/1 579/3/1 580/4/1
f 581/1/1 582/2/1 583/3/1 584/4/1
f 585/1/1 586/2/1 587/3/1 588/4/1
f 589/1/1 590/2/1 591/3/1 592/4/1
f 593/1/1 594/2/1 595/3/1 596/4/1
f 597/1/1 598/2/1 599/3/1 600/4/1
f 601/1/1 602/2/1 603/3/1 604/4/1
f 605/1/1 606/2/1 607/3/1 608/4/1
f 609/1/1 610/2/1 611/3/1 612/4/1
f 613/1/1 614/2/1 615/3/1 616/4/1
f 617/1/1 618/2/1 619/3/1 620/4/1
f 621/1/1 622/2/1 623/3/1 624/4/1
f 625/1/1 626/2/1 627/3/1 628/4/1
f 629/1/1 630/2/1 631/3/1 632/4/1
f 633/1/1 634/2/1 635/3/1 636/4/1
f 637/1/1 638/2/1 639/3/1 640/4/1
f 641/1/1 642/2/1 643/3/1 644/4/1
f 645/1/1 646/2/1 647/3/1 648/4/1
f 649/1/1 650/2/1 651/3/1 652/4/1
f 653/1/1 654/2/1 655/3/1 656/4/1
f 657/1/1 658/2/1 659/3/1 660/4/1
f 661/1/1 662/2/1 663/3/1 664/4/1
f 665/1/1 666/2/1 667/3/1 668/4/1
f 669/1/1 670/2/1 671/3/1 672/4/1
f 673/1/1 674/2/1 675/3/1 676/4/1

