# Tiled2Unity generated file. Do not modify by hand.
# Wavefront file for 'JUNGLE_mesh_0022.obj'

# Vertices (Count = 20)
v -47 -33 0
v -48 -33 0
v -48 -32 0
v -47 -32 0
v -46 -33 0
v -47 -33 0
v -47 -32 0
v -46 -32 0
v -44 -33 0
v -45 -33 0
v -45 -32 0
v -44 -32 0
v -42 -33 0
v -43 -33 0
v -43 -32 0
v -42 -32 0
v -42 -40 0
v -43 -40 0
v -43 -39 0
v -42 -39 0

# Texture cooridinates (Count = 4)
vt 0 0
vt 1 0
vt 1 1
vt 0 1

# Normal
vn 0 0 -1

# Mesh description
g JUNGLE_mesh_0022

# Faces
f 1/1/1 2/2/1 3/3/1 4/4/1
f 5/1/1 6/2/1 7/3/1 8/4/1
f 9/1/1 10/2/1 11/3/1 12/4/1
f 13/1/1 14/2/1 15/3/1 16/4/1
f 17/1/1 18/2/1 19/3/1 20/4/1

