# Tiled2Unity generated file. Do not modify by hand.
# Wavefront file for 'JUNGLE_mesh_0020.obj'

# Vertices (Count = 84)
v -84 -9 0
v -85 -9 0
v -85 -8 0
v -84 -8 0
v -13 -14 0
v -14 -14 0
v -14 -13 0
v -13 -13 0
v -13 -15 0
v -14 -15 0
v -14 -14 0
v -13 -14 0
v -76 -24 0
v -77 -24 0
v -77 -23 0
v -76 -23 0
v -88 -26 0
v -89 -26 0
v -89 -25 0
v -88 -25 0
v -86 -26 0
v -87 -26 0
v -87 -25 0
v -86 -25 0
v -20 -33 0
v -21 -33 0
v -21 -32 0
v -20 -32 0
v -73 -35 0
v -74 -35 0
v -74 -34 0
v -73 -34 0
v -79 -40 0
v -80 -40 0
v -80 -39 0
v -79 -39 0
v -7 -40 0
v -8 -40 0
v -8 -39 0
v -7 -39 0
v -67 -41 0
v -68 -41 0
v -68 -40 0
v -67 -40 0
v -67 -43 0
v -68 -43 0
v -68 -42 0
v -67 -42 0
v -35 -44 0
v -36 -44 0
v -36 -43 0
v -35 -43 0
v -45 -45 0
v -46 -45 0
v -46 -44 0
v -45 -44 0
v -77 -46 0
v -78 -46 0
v -78 -45 0
v -77 -45 0
v -24 -47 0
v -25 -47 0
v -25 -46 0
v -24 -46 0
v -59 -52 0
v -60 -52 0
v -60 -51 0
v -59 -51 0
v -70 -60 0
v -71 -60 0
v -71 -59 0
v -70 -59 0
v -64 -61 0
v -65 -61 0
v -65 -60 0
v -64 -60 0
v -37 -64 0
v -38 -64 0
v -38 -63 0
v -37 -63 0
v -71 -70 0
v -72 -70 0
v -72 -69 0
v -71 -69 0

# Texture cooridinates (Count = 4)
vt 0 0
vt 1 0
vt 1 1
vt 0 1

# Normal
vn 0 0 -1

# Mesh description
g JUNGLE_mesh_0020

# Faces
f 1/1/1 2/2/1 3/3/1 4/4/1
f 5/1/1 6/2/1 7/3/1 8/4/1
f 9/1/1 10/2/1 11/3/1 12/4/1
f 13/1/1 14/2/1 15/3/1 16/4/1
f 17/2/1 18/1/1 19/4/1 20/3/1
f 21/1/1 22/2/1 23/3/1 24/4/1
f 25/1/1 26/2/1 27/3/1 28/4/1
f 29/1/1 30/2/1 31/3/1 32/4/1
f 33/1/1 34/2/1 35/3/1 36/4/1
f 37/1/1 38/2/1 39/3/1 40/4/1
f 41/1/1 42/2/1 43/3/1 44/4/1
f 45/1/1 46/2/1 47/3/1 48/4/1
f 49/1/1 50/2/1 51/3/1 52/4/1
f 53/1/1 54/2/1 55/3/1 56/4/1
f 57/1/1 58/2/1 59/3/1 60/4/1
f 61/1/1 62/2/1 63/3/1 64/4/1
f 65/1/1 66/2/1 67/3/1 68/4/1
f 69/1/1 70/2/1 71/3/1 72/4/1
f 73/1/1 74/2/1 75/3/1 76/4/1
f 77/1/1 78/2/1 79/3/1 80/4/1
f 81/1/1 82/2/1 83/3/1 84/4/1

