# Tiled2Unity generated file. Do not modify by hand.
# Wavefront file for 'JUNGLE_mesh_0026.obj'

# Vertices (Count = 16)
v -48 -34 0
v -49 -34 0
v -49 -33 0
v -48 -33 0
v -48 -36 0
v -49 -36 0
v -49 -35 0
v -48 -35 0
v -48 -38 0
v -49 -38 0
v -49 -37 0
v -48 -37 0
v -41 -38 0
v -42 -38 0
v -42 -37 0
v -41 -37 0

# Texture cooridinates (Count = 4)
vt 0 0
vt 1 0
vt 1 1
vt 0 1

# Normal
vn 0 0 -1

# Mesh description
g JUNGLE_mesh_0026

# Faces
f 1/1/1 2/2/1 3/3/1 4/4/1
f 5/1/1 6/2/1 7/3/1 8/4/1
f 9/1/1 10/2/1 11/3/1 12/4/1
f 13/1/1 14/2/1 15/3/1 16/4/1

