# Tiled2Unity generated file. Do not modify by hand.
# Wavefront file for 'JUNGLE_mesh_0003.obj'

# Vertices (Count = 592)
v -50 -4 0
v -51 -4 0
v -51 -3 0
v -50 -3 0
v -53 -5 0
v -54 -5 0
v -54 -4 0
v -53 -4 0
v -53 -7 0
v -54 -7 0
v -54 -6 0
v -53 -6 0
v -45 -7 0
v -46 -7 0
v -46 -6 0
v -45 -6 0
v -93 -8 0
v -94 -8 0
v -94 -7 0
v -93 -7 0
v -83 -8 0
v -84 -8 0
v -84 -7 0
v -83 -7 0
v -55 -8 0
v -56 -8 0
v -56 -7 0
v -55 -7 0
v -54 -8 0
v -55 -8 0
v -55 -7 0
v -54 -7 0
v -85 -9 0
v -86 -9 0
v -86 -8 0
v -85 -8 0
v -87 -10 0
v -88 -10 0
v -88 -9 0
v -87 -9 0
v -79 -10 0
v -80 -10 0
v -80 -9 0
v -79 -9 0
v -48 -10 0
v -49 -10 0
v -49 -9 0
v -48 -9 0
v -95 -11 0
v -96 -11 0
v -96 -10 0
v -95 -10 0
v -80 -11 0
v -81 -11 0
v -81 -10 0
v -80 -10 0
v -50 -11 0
v -51 -11 0
v -51 -10 0
v -50 -10 0
v -56 -12 0
v -57 -12 0
v -57 -11 0
v -56 -11 0
v -50 -12 0
v -51 -12 0
v -51 -11 0
v -50 -11 0
v -92 -13 0
v -93 -13 0
v -93 -12 0
v -92 -12 0
v -33 -13 0
v -34 -13 0
v -34 -12 0
v -33 -12 0
v -21 -13 0
v -22 -13 0
v -22 -12 0
v -21 -12 0
v -14 -13 0
v -15 -13 0
v -15 -12 0
v -14 -12 0
v -84 -14 0
v -85 -14 0
v -85 -13 0
v -84 -13 0
v -81 -14 0
v -82 -14 0
v -82 -13 0
v -81 -13 0
v -40 -14 0
v -41 -14 0
v -41 -13 0
v -40 -13 0
v -36 -14 0
v -37 -14 0
v -37 -13 0
v -36 -13 0
v -23 -14 0
v -24 -14 0
v -24 -13 0
v -23 -13 0
v -16 -14 0
v -17 -14 0
v -17 -13 0
v -16 -13 0
v -61 -15 0
v -62 -15 0
v -62 -14 0
v -61 -14 0
v -36 -15 0
v -37 -15 0
v -37 -14 0
v -36 -14 0
v -16 -15 0
v -17 -15 0
v -17 -14 0
v -16 -14 0
v -87 -16 0
v -88 -16 0
v -88 -15 0
v -87 -15 0
v -24 -17 0
v -25 -17 0
v -25 -16 0
v -24 -16 0
v -19 -17 0
v -20 -17 0
v -20 -16 0
v -19 -16 0
v -90 -18 0
v -91 -18 0
v -91 -17 0
v -90 -17 0
v -59 -18 0
v -60 -18 0
v -60 -17 0
v -59 -17 0
v -15 -18 0
v -16 -18 0
v -16 -17 0
v -15 -17 0
v -87 -19 0
v -88 -19 0
v -88 -18 0
v -87 -18 0
v -20 -20 0
v -21 -20 0
v -21 -19 0
v -20 -19 0
v -93 -21 0
v -94 -21 0
v -94 -20 0
v -93 -20 0
v -85 -21 0
v -86 -21 0
v -86 -20 0
v -85 -20 0
v -84 -21 0
v -85 -21 0
v -85 -20 0
v -84 -20 0
v -81 -21 0
v -82 -21 0
v -82 -20 0
v -81 -20 0
v -61 -21 0
v -62 -21 0
v -62 -20 0
v -61 -20 0
v -88 -22 0
v -89 -22 0
v -89 -21 0
v -88 -21 0
v -41 -22 0
v -42 -22 0
v -42 -21 0
v -41 -21 0
v -55 -23 0
v -56 -23 0
v -56 -22 0
v -55 -22 0
v -33 -23 0
v -34 -23 0
v -34 -22 0
v -33 -22 0
v -86 -24 0
v -87 -24 0
v -87 -23 0
v -86 -23 0
v -51 -24 0
v -52 -24 0
v -52 -23 0
v -51 -23 0
v -93 -25 0
v -94 -25 0
v -94 -24 0
v -93 -24 0
v -81 -27 0
v -82 -27 0
v -82 -26 0
v -81 -26 0
v -89 -28 0
v -90 -28 0
v -90 -27 0
v -89 -27 0
v -77 -28 0
v -78 -28 0
v -78 -27 0
v -77 -27 0
v -93 -29 0
v -94 -29 0
v -94 -28 0
v -93 -28 0
v -86 -29 0
v -87 -29 0
v -87 -28 0
v -86 -28 0
v -61 -29 0
v -62 -29 0
v -62 -28 0
v -61 -28 0
v -54 -29 0
v -55 -29 0
v -55 -28 0
v -54 -28 0
v -53 -29 0
v -54 -29 0
v -54 -28 0
v -53 -28 0
v -45 -29 0
v -46 -29 0
v -46 -28 0
v -45 -28 0
v -79 -30 0
v -80 -30 0
v -80 -29 0
v -79 -29 0
v -54 -31 0
v -55 -31 0
v -55 -30 0
v -54 -30 0
v -84 -32 0
v -85 -32 0
v -85 -31 0
v -84 -31 0
v -83 -32 0
v -84 -32 0
v -84 -31 0
v -83 -31 0
v -72 -32 0
v -73 -32 0
v -73 -31 0
v -72 -31 0
v -54 -32 0
v -55 -32 0
v -55 -31 0
v -54 -31 0
v -49 -32 0
v -50 -32 0
v -50 -31 0
v -49 -31 0
v -23 -32 0
v -24 -32 0
v -24 -31 0
v -23 -31 0
v -12 -32 0
v -13 -32 0
v -13 -31 0
v -12 -31 0
v -86 -33 0
v -87 -33 0
v -87 -32 0
v -86 -32 0
v -78 -33 0
v -79 -33 0
v -79 -32 0
v -78 -32 0
v -66 -33 0
v -67 -33 0
v -67 -32 0
v -66 -32 0
v -29 -33 0
v -30 -33 0
v -30 -32 0
v -29 -32 0
v -66 -34 0
v -67 -34 0
v -67 -33 0
v -66 -33 0
v -60 -34 0
v -61 -34 0
v -61 -33 0
v -60 -33 0
v -67 -35 0
v -68 -35 0
v -68 -34 0
v -67 -34 0
v -14 -36 0
v -15 -36 0
v -15 -35 0
v -14 -35 0
v -52 -37 0
v -53 -37 0
v -53 -36 0
v -52 -36 0
v -22 -37 0
v -23 -37 0
v -23 -36 0
v -22 -36 0
v -12 -37 0
v -13 -37 0
v -13 -36 0
v -12 -36 0
v -12 -38 0
v -13 -38 0
v -13 -37 0
v -12 -37 0
v -12 -39 0
v -13 -39 0
v -13 -38 0
v -12 -38 0
v -22 -40 0
v -23 -40 0
v -23 -39 0
v -22 -39 0
v -91 -41 0
v -92 -41 0
v -92 -40 0
v -91 -40 0
v -88 -41 0
v -89 -41 0
v -89 -40 0
v -88 -40 0
v -87 -41 0
v -88 -41 0
v -88 -40 0
v -87 -40 0
v -70 -41 0
v -71 -41 0
v -71 -40 0
v -70 -40 0
v -40 -41 0
v -41 -41 0
v -41 -40 0
v -40 -40 0
v -54 -42 0
v -55 -42 0
v -55 -41 0
v -54 -41 0
v -53 -42 0
v -54 -42 0
v -54 -41 0
v -53 -41 0
v -52 -42 0
v -53 -42 0
v -53 -41 0
v -52 -41 0
v -40 -42 0
v -41 -42 0
v -41 -41 0
v -40 -41 0
v -40 -43 0
v -41 -43 0
v -41 -42 0
v -40 -42 0
v -84 -44 0
v -85 -44 0
v -85 -43 0
v -84 -43 0
v -70 -44 0
v -71 -44 0
v -71 -43 0
v -70 -43 0
v -69 -44 0
v -70 -44 0
v -70 -43 0
v -69 -43 0
v -65 -44 0
v -66 -44 0
v -66 -43 0
v -65 -43 0
v -63 -44 0
v -64 -44 0
v -64 -43 0
v -63 -43 0
v -43 -44 0
v -44 -44 0
v -44 -43 0
v -43 -43 0
v -41 -44 0
v -42 -44 0
v -42 -43 0
v -41 -43 0
v -40 -44 0
v -41 -44 0
v -41 -43 0
v -40 -43 0
v -27 -44 0
v -28 -44 0
v -28 -43 0
v -27 -43 0
v -22 -44 0
v -23 -44 0
v -23 -43 0
v -22 -43 0
v -93 -45 0
v -94 -45 0
v -94 -44 0
v -93 -44 0
v -92 -45 0
v -93 -45 0
v -93 -44 0
v -92 -44 0
v -84 -45 0
v -85 -45 0
v -85 -44 0
v -84 -44 0
v -54 -45 0
v -55 -45 0
v -55 -44 0
v -54 -44 0
v -41 -45 0
v -42 -45 0
v -42 -44 0
v -41 -44 0
v -25 -45 0
v -26 -45 0
v -26 -44 0
v -25 -44 0
v -93 -46 0
v -94 -46 0
v -94 -45 0
v -93 -45 0
v -70 -46 0
v -71 -46 0
v -71 -45 0
v -70 -45 0
v -41 -46 0
v -42 -46 0
v -42 -45 0
v -41 -45 0
v -64 -47 0
v -65 -47 0
v -65 -46 0
v -64 -46 0
v -41 -47 0
v -42 -47 0
v -42 -46 0
v -41 -46 0
v -31 -47 0
v -32 -47 0
v -32 -46 0
v -31 -46 0
v -28 -47 0
v -29 -47 0
v -29 -46 0
v -28 -46 0
v -88 -48 0
v -89 -48 0
v -89 -47 0
v -88 -47 0
v -70 -48 0
v -71 -48 0
v -71 -47 0
v -70 -47 0
v -91 -49 0
v -92 -49 0
v -92 -48 0
v -91 -48 0
v -37 -49 0
v -38 -49 0
v -38 -48 0
v -37 -48 0
v -35 -49 0
v -36 -49 0
v -36 -48 0
v -35 -48 0
v -93 -50 0
v -94 -50 0
v -94 -49 0
v -93 -49 0
v -92 -50 0
v -93 -50 0
v -93 -49 0
v -92 -49 0
v -65 -50 0
v -66 -50 0
v -66 -49 0
v -65 -49 0
v -37 -50 0
v -38 -50 0
v -38 -49 0
v -37 -49 0
v -32 -50 0
v -33 -50 0
v -33 -49 0
v -32 -49 0
v -37 -51 0
v -38 -51 0
v -38 -50 0
v -37 -50 0
v -29 -53 0
v -30 -53 0
v -30 -52 0
v -29 -52 0
v -73 -54 0
v -74 -54 0
v -74 -53 0
v -73 -53 0
v -36 -54 0
v -37 -54 0
v -37 -53 0
v -36 -53 0
v -30 -56 0
v -31 -56 0
v -31 -55 0
v -30 -55 0
v -32 -57 0
v -33 -57 0
v -33 -56 0
v -32 -56 0
v -81 -60 0
v -82 -60 0
v -82 -59 0
v -81 -59 0
v -80 -60 0
v -81 -60 0
v -81 -59 0
v -80 -59 0
v -76 -60 0
v -77 -60 0
v -77 -59 0
v -76 -59 0
v -74 -62 0
v -75 -62 0
v -75 -61 0
v -74 -61 0
v -49 -62 0
v -50 -62 0
v -50 -61 0
v -49 -61 0
v -52 -63 0
v -53 -63 0
v -53 -62 0
v -52 -62 0
v -48 -63 0
v -49 -63 0
v -49 -62 0
v -48 -62 0
v -90 -64 0
v -91 -64 0
v -91 -63 0
v -90 -63 0
v -84 -64 0
v -85 -64 0
v -85 -63 0
v -84 -63 0
v -90 -65 0
v -91 -65 0
v -91 -64 0
v -90 -64 0
v -76 -65 0
v -77 -65 0
v -77 -64 0
v -76 -64 0
v -58 -65 0
v -59 -65 0
v -59 -64 0
v -58 -64 0
v -48 -65 0
v -49 -65 0
v -49 -64 0
v -48 -64 0
v -85 -66 0
v -86 -66 0
v -86 -65 0
v -85 -65 0
v -86 -67 0
v -87 -67 0
v -87 -66 0
v -86 -66 0
v -85 -67 0
v -86 -67 0
v -86 -66 0
v -85 -66 0
v -75 -68 0
v -76 -68 0
v -76 -67 0
v -75 -67 0

# Texture cooridinates (Count = 4)
vt 0 0
vt 1 0
vt 1 1
vt 0 1

# Normal
vn 0 0 -1

# Mesh description
g JUNGLE_mesh_0003

# Faces
f 1/1/1 2/2/1 3/3/1 4/4/1
f 5/1/1 6/2/1 7/3/1 8/4/1
f 9/1/1 10/2/1 11/3/1 12/4/1
f 13/1/1 14/2/1 15/3/1 16/4/1
f 17/1/1 18/2/1 19/3/1 20/4/1
f 21/1/1 22/2/1 23/3/1 24/4/1
f 25/1/1 26/2/1 27/3/1 28/4/1
f 29/1/1 30/2/1 31/3/1 32/4/1
f 33/1/1 34/2/1 35/3/1 36/4/1
f 37/1/1 38/2/1 39/3/1 40/4/1
f 41/1/1 42/2/1 43/3/1 44/4/1
f 45/1/1 46/2/1 47/3/1 48/4/1
f 49/1/1 50/2/1 51/3/1 52/4/1
f 53/1/1 54/2/1 55/3/1 56/4/1
f 57/1/1 58/2/1 59/3/1 60/4/1
f 61/1/1 62/2/1 63/3/1 64/4/1
f 65/1/1 66/2/1 67/3/1 68/4/1
f 69/1/1 70/2/1 71/3/1 72/4/1
f 73/1/1 74/2/1 75/3/1 76/4/1
f 77/1/1 78/2/1 79/3/1 80/4/1
f 81/1/1 82/2/1 83/3/1 84/4/1
f 85/1/1 86/2/1 87/3/1 88/4/1
f 89/1/1 90/2/1 91/3/1 92/4/1
f 93/1/1 94/2/1 95/3/1 96/4/1
f 97/1/1 98/2/1 99/3/1 100/4/1
f 101/1/1 102/2/1 103/3/1 104/4/1
f 105/1/1 106/2/1 107/3/1 108/4/1
f 109/1/1 110/2/1 111/3/1 112/4/1
f 113/1/1 114/2/1 115/3/1 116/4/1
f 117/1/1 118/2/1 119/3/1 120/4/1
f 121/1/1 122/2/1 123/3/1 124/4/1
f 125/1/1 126/2/1 127/3/1 128/4/1
f 129/1/1 130/2/1 131/3/1 132/4/1
f 133/1/1 134/2/1 135/3/1 136/4/1
f 137/1/1 138/2/1 139/3/1 140/4/1
f 141/1/1 142/2/1 143/3/1 144/4/1
f 145/1/1 146/2/1 147/3/1 148/4/1
f 149/1/1 150/2/1 151/3/1 152/4/1
f 153/1/1 154/2/1 155/3/1 156/4/1
f 157/1/1 158/2/1 159/3/1 160/4/1
f 161/1/1 162/2/1 163/3/1 164/4/1
f 165/1/1 166/2/1 167/3/1 168/4/1
f 169/1/1 170/2/1 171/3/1 172/4/1
f 173/1/1 174/2/1 175/3/1 176/4/1
f 177/1/1 178/2/1 179/3/1 180/4/1
f 181/1/1 182/2/1 183/3/1 184/4/1
f 185/1/1 186/2/1 187/3/1 188/4/1
f 189/1/1 190/2/1 191/3/1 192/4/1
f 193/1/1 194/2/1 195/3/1 196/4/1
f 197/1/1 198/2/1 199/3/1 200/4/1
f 201/1/1 202/2/1 203/3/1 204/4/1
f 205/1/1 206/2/1 207/3/1 208/4/1
f 209/1/1 210/2/1 211/3/1 212/4/1
f 213/1/1 214/2/1 215/3/1 216/4/1
f 217/1/1 218/2/1 219/3/1 220/4/1
f 221/1/1 222/2/1 223/3/1 224/4/1
f 225/1/1 226/2/1 227/3/1 228/4/1
f 229/1/1 230/2/1 231/3/1 232/4/1
f 233/1/1 234/2/1 235/3/1 236/4/1
f 237/1/1 238/2/1 239/3/1 240/4/1
f 241/1/1 242/2/1 243/3/1 244/4/1
f 245/1/1 246/2/1 247/3/1 248/4/1
f 249/1/1 250/2/1 251/3/1 252/4/1
f 253/1/1 254/2/1 255/3/1 256/4/1
f 257/1/1 258/2/1 259/3/1 260/4/1
f 261/1/1 262/2/1 263/3/1 264/4/1
f 265/1/1 266/2/1 267/3/1 268/4/1
f 269/1/1 270/2/1 271/3/1 272/4/1
f 273/1/1 274/2/1 275/3/1 276/4/1
f 277/1/1 278/2/1 279/3/1 280/4/1
f 281/1/1 282/2/1 283/3/1 284/4/1
f 285/1/1 286/2/1 287/3/1 288/4/1
f 289/1/1 290/2/1 291/3/1 292/4/1
f 293/1/1 294/2/1 295/3/1 296/4/1
f 297/1/1 298/2/1 299/3/1 300/4/1
f 301/1/1 302/2/1 303/3/1 304/4/1
f 305/1/1 306/2/1 307/3/1 308/4/1
f 309/1/1 310/2/1 311/3/1 312/4/1
f 313/1/1 314/2/1 315/3/1 316/4/1
f 317/1/1 318/2/1 319/3/1 320/4/1
f 321/1/1 322/2/1 323/3/1 324/4/1
f 325/1/1 326/2/1 327/3/1 328/4/1
f 329/1/1 330/2/1 331/3/1 332/4/1
f 333/1/1 334/2/1 335/3/1 336/4/1
f 337/1/1 338/2/1 339/3/1 340/4/1
f 341/1/1 342/2/1 343/3/1 344/4/1
f 345/1/1 346/2/1 347/3/1 348/4/1
f 349/1/1 350/2/1 351/3/1 352/4/1
f 353/1/1 354/2/1 355/3/1 356/4/1
f 357/1/1 358/2/1 359/3/1 360/4/1
f 361/1/1 362/2/1 363/3/1 364/4/1
f 365/1/1 366/2/1 367/3/1 368/4/1
f 369/1/1 370/2/1 371/3/1 372/4/1
f 373/1/1 374/2/1 375/3/1 376/4/1
f 377/1/1 378/2/1 379/3/1 380/4/1
f 381/1/1 382/2/1 383/3/1 384/4/1
f 385/1/1 386/2/1 387/3/1 388/4/1
f 389/1/1 390/2/1 391/3/1 392/4/1
f 393/1/1 394/2/1 395/3/1 396/4/1
f 397/1/1 398/2/1 399/3/1 400/4/1
f 401/1/1 402/2/1 403/3/1 404/4/1
f 405/1/1 406/2/1 407/3/1 408/4/1
f 409/1/1 410/2/1 411/3/1 412/4/1
f 413/1/1 414/2/1 415/3/1 416/4/1
f 417/1/1 418/2/1 419/3/1 420/4/1
f 421/1/1 422/2/1 423/3/1 424/4/1
f 425/1/1 426/2/1 427/3/1 428/4/1
f 429/1/1 430/2/1 431/3/1 432/4/1
f 433/1/1 434/2/1 435/3/1 436/4/1
f 437/1/1 438/2/1 439/3/1 440/4/1
f 441/1/1 442/2/1 443/3/1 444/4/1
f 445/1/1 446/2/1 447/3/1 448/4/1
f 449/1/1 450/2/1 451/3/1 452/4/1
f 453/1/1 454/2/1 455/3/1 456/4/1
f 457/1/1 458/2/1 459/3/1 460/4/1
f 461/1/1 462/2/1 463/3/1 464/4/1
f 465/1/1 466/2/1 467/3/1 468/4/1
f 469/1/1 470/2/1 471/3/1 472/4/1
f 473/1/1 474/2/1 475/3/1 476/4/1
f 477/1/1 478/2/1 479/3/1 480/4/1
f 481/1/1 482/2/1 483/3/1 484/4/1
f 485/1/1 486/2/1 487/3/1 488/4/1
f 489/1/1 490/2/1 491/3/1 492/4/1
f 493/1/1 494/2/1 495/3/1 496/4/1
f 497/1/1 498/2/1 499/3/1 500/4/1
f 501/1/1 502/2/1 503/3/1 504/4/1
f 505/1/1 506/2/1 507/3/1 508/4/1
f 509/1/1 510/2/1 511/3/1 512/4/1
f 513/1/1 514/2/1 515/3/1 516/4/1
f 517/1/1 518/2/1 519/3/1 520/4/1
f 521/1/1 522/2/1 523/3/1 524/4/1
f 525/1/1 526/2/1 527/3/1 528/4/1
f 529/1/1 530/2/1 531/3/1 532/4/1
f 533/1/1 534/2/1 535/3/1 536/4/1
f 537/1/1 538/2/1 539/3/1 540/4/1
f 541/1/1 542/2/1 543/3/1 544/4/1
f 545/1/1 546/2/1 547/3/1 548/4/1
f 549/1/1 550/2/1 551/3/1 552/4/1
f 553/1/1 554/2/1 555/3/1 556/4/1
f 557/1/1 558/2/1 559/3/1 560/4/1
f 561/1/1 562/2/1 563/3/1 564/4/1
f 565/1/1 566/2/1 567/3/1 568/4/1
f 569/1/1 570/2/1 571/3/1 572/4/1
f 573/1/1 574/2/1 575/3/1 576/4/1
f 577/1/1 578/2/1 579/3/1 580/4/1
f 581/1/1 582/2/1 583/3/1 584/4/1
f 585/1/1 586/2/1 587/3/1 588/4/1
f 589/1/1 590/2/1 591/3/1 592/4/1

