# Tiled2Unity generated file. Do not modify by hand.
# Wavefront file for 'JUNGLE_mesh_0031.obj'

# Vertices (Count = 20)
v -42 -6 0
v -43 -6 0
v -43 -5 0
v -42 -5 0
v -79 -9 0
v -80 -9 0
v -80 -8 0
v -79 -8 0
v -10 -32 0
v -11 -32 0
v -11 -31 0
v -10 -31 0
v -58 -57 0
v -59 -57 0
v -59 -56 0
v -58 -56 0
v -39 -64 0
v -40 -64 0
v -40 -63 0
v -39 -63 0

# Texture cooridinates (Count = 4)
vt 0 0
vt 1 0
vt 1 1
vt 0 1

# Normal
vn 0 0 -1

# Mesh description
g JUNGLE_mesh_0031

# Faces
f 1/1/1 2/2/1 3/3/1 4/4/1
f 5/1/1 6/2/1 7/3/1 8/4/1
f 9/1/1 10/2/1 11/3/1 12/4/1
f 13/1/1 14/2/1 15/3/1 16/4/1
f 17/1/1 18/2/1 19/3/1 20/4/1

