# Tiled2Unity generated file. Do not modify by hand.
# Wavefront file for 'JUNGLE_mesh_0033.obj'

# Vertices (Count = 16)
v -65 -37 0
v -66 -37 0
v -66 -36 0
v -65 -36 0
v -84 -38 0
v -85 -38 0
v -85 -37 0
v -84 -37 0
v -60 -39 0
v -61 -39 0
v -61 -38 0
v -60 -38 0
v -63 -40 0
v -64 -40 0
v -64 -39 0
v -63 -39 0

# Texture cooridinates (Count = 4)
vt 0 0
vt 1 0
vt 1 1
vt 0 1

# Normal
vn 0 0 -1

# Mesh description
g JUNGLE_mesh_0033

# Faces
f 1/1/1 2/2/1 3/3/1 4/4/1
f 5/1/1 6/2/1 7/3/1 8/4/1
f 9/1/1 10/2/1 11/3/1 12/4/1
f 13/1/1 14/2/1 15/3/1 16/4/1

