# Tiled2Unity generated file. Do not modify by hand.
# Wavefront file for 'JUNGLE_mesh_0035.obj'

# Vertices (Count = 16)
v -63 -38 0
v -64 -38 0
v -64 -37 0
v -63 -37 0
v -82 -39 0
v -83 -39 0
v -83 -38 0
v -82 -38 0
v -58 -40 0
v -59 -40 0
v -59 -39 0
v -58 -39 0
v -61 -41 0
v -62 -41 0
v -62 -40 0
v -61 -40 0

# Texture cooridinates (Count = 4)
vt 0 0
vt 1 0
vt 1 1
vt 0 1

# Normal
vn 0 0 -1

# Mesh description
g JUNGLE_mesh_0035

# Faces
f 1/1/1 2/2/1 3/3/1 4/4/1
f 5/1/1 6/2/1 7/3/1 8/4/1
f 9/1/1 10/2/1 11/3/1 12/4/1
f 13/1/1 14/2/1 15/3/1 16/4/1

