# Tiled2Unity generated file. Do not modify by hand.
# Wavefront file for 'Beta_mesh_0009.obj'

# Vertices (Count = 504)
v -52 -24 0
v -53 -24 0
v -53 -23 0
v -52 -23 0
v -41 -24 0
v -42 -24 0
v -42 -23 0
v -41 -23 0
v -64 -25 0
v -65 -25 0
v -65 -24 0
v -64 -24 0
v -57 -25 0
v -58 -25 0
v -58 -24 0
v -57 -24 0
v -46 -25 0
v -47 -25 0
v -47 -24 0
v -46 -24 0
v -72 -26 0
v -73 -26 0
v -73 -25 0
v -72 -25 0
v -35 -26 0
v -36 -26 0
v -36 -25 0
v -35 -25 0
v -75 -27 0
v -76 -27 0
v -76 -26 0
v -75 -26 0
v -63 -28 0
v -64 -28 0
v -64 -27 0
v -63 -27 0
v -85 -29 0
v -86 -29 0
v -86 -28 0
v -85 -28 0
v -58 -29 0
v -59 -29 0
v -59 -28 0
v -58 -28 0
v -46 -29 0
v -47 -29 0
v -47 -28 0
v -46 -28 0
v -38 -29 0
v -39 -29 0
v -39 -28 0
v -38 -28 0
v -32 -29 0
v -33 -29 0
v -33 -28 0
v -32 -28 0
v -80 -31 0
v -81 -31 0
v -81 -30 0
v -80 -30 0
v -74 -31 0
v -75 -31 0
v -75 -30 0
v -74 -30 0
v -71 -31 0
v -72 -31 0
v -72 -30 0
v -71 -30 0
v -55 -31 0
v -56 -31 0
v -56 -30 0
v -55 -30 0
v -91 -32 0
v -92 -32 0
v -92 -31 0
v -91 -31 0
v -68 -32 0
v -69 -32 0
v -69 -31 0
v -68 -31 0
v -66 -32 0
v -67 -32 0
v -67 -31 0
v -66 -31 0
v -37 -32 0
v -38 -32 0
v -38 -31 0
v -37 -31 0
v -27 -32 0
v -28 -32 0
v -28 -31 0
v -27 -31 0
v -65 -33 0
v -66 -33 0
v -66 -32 0
v -65 -32 0
v -79 -34 0
v -80 -34 0
v -80 -33 0
v -79 -33 0
v -61 -34 0
v -62 -34 0
v -62 -33 0
v -61 -33 0
v -56 -34 0
v -57 -34 0
v -57 -33 0
v -56 -33 0
v -29 -34 0
v -30 -34 0
v -30 -33 0
v -29 -33 0
v -22 -34 0
v -23 -34 0
v -23 -33 0
v -22 -33 0
v -89 -35 0
v -90 -35 0
v -90 -34 0
v -89 -34 0
v -36 -35 0
v -37 -35 0
v -37 -34 0
v -36 -34 0
v -64 -36 0
v -65 -36 0
v -65 -35 0
v -64 -35 0
v -54 -36 0
v -55 -36 0
v -55 -35 0
v -54 -35 0
v -56 -37 0
v -57 -37 0
v -57 -36 0
v -56 -36 0
v -82 -38 0
v -83 -38 0
v -83 -37 0
v -82 -37 0
v -59 -38 0
v -60 -38 0
v -60 -37 0
v -59 -37 0
v -44 -38 0
v -45 -38 0
v -45 -37 0
v -44 -37 0
v -29 -38 0
v -30 -38 0
v -30 -37 0
v -29 -37 0
v -12 -38 0
v -13 -38 0
v -13 -37 0
v -12 -37 0
v -33 -39 0
v -34 -39 0
v -34 -38 0
v -33 -38 0
v -39 -40 0
v -40 -40 0
v -40 -39 0
v -39 -39 0
v -37 -40 0
v -38 -40 0
v -38 -39 0
v -37 -39 0
v -27 -40 0
v -28 -40 0
v -28 -39 0
v -27 -39 0
v -22 -40 0
v -23 -40 0
v -23 -39 0
v -22 -39 0
v -59 -42 0
v -60 -42 0
v -60 -41 0
v -59 -41 0
v -82 -43 0
v -83 -43 0
v -83 -42 0
v -82 -42 0
v -74 -43 0
v -75 -43 0
v -75 -42 0
v -74 -42 0
v -95 -44 0
v -96 -44 0
v -96 -43 0
v -95 -43 0
v -91 -44 0
v -92 -44 0
v -92 -43 0
v -91 -43 0
v -78 -44 0
v -79 -44 0
v -79 -43 0
v -78 -43 0
v -30 -44 0
v -31 -44 0
v -31 -43 0
v -30 -43 0
v -91 -45 0
v -92 -45 0
v -92 -44 0
v -91 -44 0
v -72 -46 0
v -73 -46 0
v -73 -45 0
v -72 -45 0
v -46 -46 0
v -47 -46 0
v -47 -45 0
v -46 -45 0
v -36 -46 0
v -37 -46 0
v -37 -45 0
v -36 -45 0
v -26 -46 0
v -27 -46 0
v -27 -45 0
v -26 -45 0
v -12 -46 0
v -13 -46 0
v -13 -45 0
v -12 -45 0
v -34 -47 0
v -35 -47 0
v -35 -46 0
v -34 -46 0
v -65 -48 0
v -66 -48 0
v -66 -47 0
v -65 -47 0
v -16 -50 0
v -17 -50 0
v -17 -49 0
v -16 -49 0
v -15 -50 0
v -16 -50 0
v -16 -49 0
v -15 -49 0
v -5 -50 0
v -6 -50 0
v -6 -49 0
v -5 -49 0
v -64 -51 0
v -65 -51 0
v -65 -50 0
v -64 -50 0
v -54 -51 0
v -55 -51 0
v -55 -50 0
v -54 -50 0
v -50 -51 0
v -51 -51 0
v -51 -50 0
v -50 -50 0
v -35 -51 0
v -36 -51 0
v -36 -50 0
v -35 -50 0
v -12 -51 0
v -13 -51 0
v -13 -50 0
v -12 -50 0
v -66 -52 0
v -67 -52 0
v -67 -51 0
v -66 -51 0
v -26 -52 0
v -27 -52 0
v -27 -51 0
v -26 -51 0
v -21 -52 0
v -22 -52 0
v -22 -51 0
v -21 -51 0
v -97 -53 0
v -98 -53 0
v -98 -52 0
v -97 -52 0
v -84 -53 0
v -85 -53 0
v -85 -52 0
v -84 -52 0
v -71 -53 0
v -72 -53 0
v -72 -52 0
v -71 -52 0
v -49 -54 0
v -50 -54 0
v -50 -53 0
v -49 -53 0
v -71 -55 0
v -72 -55 0
v -72 -54 0
v -71 -54 0
v -68 -55 0
v -69 -55 0
v -69 -54 0
v -68 -54 0
v -62 -55 0
v -63 -55 0
v -63 -54 0
v -62 -54 0
v -51 -55 0
v -52 -55 0
v -52 -54 0
v -51 -54 0
v -39 -55 0
v -40 -55 0
v -40 -54 0
v -39 -54 0
v -30 -55 0
v -31 -55 0
v -31 -54 0
v -30 -54 0
v -84 -56 0
v -85 -56 0
v -85 -55 0
v -84 -55 0
v -58 -56 0
v -59 -56 0
v -59 -55 0
v -58 -55 0
v -54 -56 0
v -55 -56 0
v -55 -55 0
v -54 -55 0
v -93 -57 0
v -94 -57 0
v -94 -56 0
v -93 -56 0
v -90 -57 0
v -91 -57 0
v -91 -56 0
v -90 -56 0
v -81 -57 0
v -82 -57 0
v -82 -56 0
v -81 -56 0
v -74 -57 0
v -75 -57 0
v -75 -56 0
v -74 -56 0
v -73 -57 0
v -74 -57 0
v -74 -56 0
v -73 -56 0
v -65 -57 0
v -66 -57 0
v -66 -56 0
v -65 -56 0
v -40 -57 0
v -41 -57 0
v -41 -56 0
v -40 -56 0
v -17 -57 0
v -18 -57 0
v -18 -56 0
v -17 -56 0
v -6 -57 0
v -7 -57 0
v -7 -56 0
v -6 -56 0
v -56 -58 0
v -57 -58 0
v -57 -57 0
v -56 -57 0
v -33 -58 0
v -34 -58 0
v -34 -57 0
v -33 -57 0
v -51 -59 0
v -52 -59 0
v -52 -58 0
v -51 -58 0
v -37 -59 0
v -38 -59 0
v -38 -58 0
v -37 -58 0
v -14 -60 0
v -15 -60 0
v -15 -59 0
v -14 -59 0
v -56 -61 0
v -57 -61 0
v -57 -60 0
v -56 -60 0
v -48 -61 0
v -49 -61 0
v -49 -60 0
v -48 -60 0
v -18 -61 0
v -19 -61 0
v -19 -60 0
v -18 -60 0
v -90 -62 0
v -91 -62 0
v -91 -61 0
v -90 -61 0
v -47 -62 0
v -48 -62 0
v -48 -61 0
v -47 -61 0
v -30 -62 0
v -31 -62 0
v -31 -61 0
v -30 -61 0
v -25 -62 0
v -26 -62 0
v -26 -61 0
v -25 -61 0
v -25 -64 0
v -26 -64 0
v -26 -63 0
v -25 -63 0
v -91 -65 0
v -92 -65 0
v -92 -64 0
v -91 -64 0
v -86 -65 0
v -87 -65 0
v -87 -64 0
v -86 -64 0
v -90 -66 0
v -91 -66 0
v -91 -65 0
v -90 -65 0
v -87 -66 0
v -88 -66 0
v -88 -65 0
v -87 -65 0
v -40 -66 0
v -41 -66 0
v -41 -65 0
v -40 -65 0
v -79 -67 0
v -80 -67 0
v -80 -66 0
v -79 -66 0
v -74 -68 0
v -75 -68 0
v -75 -67 0
v -74 -67 0
v -42 -68 0
v -43 -68 0
v -43 -67 0
v -42 -67 0
v -71 -69 0
v -72 -69 0
v -72 -68 0
v -71 -68 0
v -37 -69 0
v -38 -69 0
v -38 -68 0
v -37 -68 0
v -25 -69 0
v -26 -69 0
v -26 -68 0
v -25 -68 0
v -22 -69 0
v -23 -69 0
v -23 -68 0
v -22 -68 0
v -17 -69 0
v -18 -69 0
v -18 -68 0
v -17 -68 0
v -13 -69 0
v -14 -69 0
v -14 -68 0
v -13 -68 0
v -92 -70 0
v -93 -70 0
v -93 -69 0
v -92 -69 0
v -84 -70 0
v -85 -70 0
v -85 -69 0
v -84 -69 0
v -74 -70 0
v -75 -70 0
v -75 -69 0
v -74 -69 0
v -18 -70 0
v -19 -70 0
v -19 -69 0
v -18 -69 0
v -86 -72 0
v -87 -72 0
v -87 -71 0
v -86 -71 0
v -69 -72 0
v -70 -72 0
v -70 -71 0
v -69 -71 0
v -14 -73 0
v -15 -73 0
v -15 -72 0
v -14 -72 0

# Texture cooridinates (Count = 4)
vt 0 0
vt 1 0
vt 1 1
vt 0 1

# Normal
vn 0 0 -1

# Mesh description
g Beta_mesh_0009

# Faces
f 1/1/1 2/2/1 3/3/1 4/4/1
f 5/1/1 6/2/1 7/3/1 8/4/1
f 9/1/1 10/2/1 11/3/1 12/4/1
f 13/1/1 14/2/1 15/3/1 16/4/1
f 17/1/1 18/2/1 19/3/1 20/4/1
f 21/1/1 22/2/1 23/3/1 24/4/1
f 25/1/1 26/2/1 27/3/1 28/4/1
f 29/1/1 30/2/1 31/3/1 32/4/1
f 33/1/1 34/2/1 35/3/1 36/4/1
f 37/1/1 38/2/1 39/3/1 40/4/1
f 41/1/1 42/2/1 43/3/1 44/4/1
f 45/1/1 46/2/1 47/3/1 48/4/1
f 49/1/1 50/2/1 51/3/1 52/4/1
f 53/1/1 54/2/1 55/3/1 56/4/1
f 57/1/1 58/2/1 59/3/1 60/4/1
f 61/1/1 62/2/1 63/3/1 64/4/1
f 65/1/1 66/2/1 67/3/1 68/4/1
f 69/1/1 70/2/1 71/3/1 72/4/1
f 73/1/1 74/2/1 75/3/1 76/4/1
f 77/1/1 78/2/1 79/3/1 80/4/1
f 81/1/1 82/2/1 83/3/1 84/4/1
f 85/1/1 86/2/1 87/3/1 88/4/1
f 89/1/1 90/2/1 91/3/1 92/4/1
f 93/1/1 94/2/1 95/3/1 96/4/1
f 97/1/1 98/2/1 99/3/1 100/4/1
f 101/1/1 102/2/1 103/3/1 104/4/1
f 105/1/1 106/2/1 107/3/1 108/4/1
f 109/1/1 110/2/1 111/3/1 112/4/1
f 113/1/1 114/2/1 115/3/1 116/4/1
f 117/1/1 118/2/1 119/3/1 120/4/1
f 121/1/1 122/2/1 123/3/1 124/4/1
f 125/1/1 126/2/1 127/3/1 128/4/1
f 129/1/1 130/2/1 131/3/1 132/4/1
f 133/1/1 134/2/1 135/3/1 136/4/1
f 137/1/1 138/2/1 139/3/1 140/4/1
f 141/1/1 142/2/1 143/3/1 144/4/1
f 145/1/1 146/2/1 147/3/1 148/4/1
f 149/1/1 150/2/1 151/3/1 152/4/1
f 153/1/1 154/2/1 155/3/1 156/4/1
f 157/1/1 158/2/1 159/3/1 160/4/1
f 161/1/1 162/2/1 163/3/1 164/4/1
f 165/1/1 166/2/1 167/3/1 168/4/1
f 169/1/1 170/2/1 171/3/1 172/4/1
f 173/1/1 174/2/1 175/3/1 176/4/1
f 177/1/1 178/2/1 179/3/1 180/4/1
f 181/1/1 182/2/1 183/3/1 184/4/1
f 185/1/1 186/2/1 187/3/1 188/4/1
f 189/1/1 190/2/1 191/3/1 192/4/1
f 193/1/1 194/2/1 195/3/1 196/4/1
f 197/1/1 198/2/1 199/3/1 200/4/1
f 201/1/1 202/2/1 203/3/1 204/4/1
f 205/1/1 206/2/1 207/3/1 208/4/1
f 209/1/1 210/2/1 211/3/1 212/4/1
f 213/1/1 214/2/1 215/3/1 216/4/1
f 217/1/1 218/2/1 219/3/1 220/4/1
f 221/1/1 222/2/1 223/3/1 224/4/1
f 225/1/1 226/2/1 227/3/1 228/4/1
f 229/1/1 230/2/1 231/3/1 232/4/1
f 233/1/1 234/2/1 235/3/1 236/4/1
f 237/1/1 238/2/1 239/3/1 240/4/1
f 241/1/1 242/2/1 243/3/1 244/4/1
f 245/1/1 246/2/1 247/3/1 248/4/1
f 249/1/1 250/2/1 251/3/1 252/4/1
f 253/1/1 254/2/1 255/3/1 256/4/1
f 257/1/1 258/2/1 259/3/1 260/4/1
f 261/1/1 262/2/1 263/3/1 264/4/1
f 265/1/1 266/2/1 267/3/1 268/4/1
f 269/1/1 270/2/1 271/3/1 272/4/1
f 273/1/1 274/2/1 275/3/1 276/4/1
f 277/1/1 278/2/1 279/3/1 280/4/1
f 281/1/1 282/2/1 283/3/1 284/4/1
f 285/1/1 286/2/1 287/3/1 288/4/1
f 289/1/1 290/2/1 291/3/1 292/4/1
f 293/1/1 294/2/1 295/3/1 296/4/1
f 297/1/1 298/2/1 299/3/1 300/4/1
f 301/1/1 302/2/1 303/3/1 304/4/1
f 305/1/1 306/2/1 307/3/1 308/4/1
f 309/1/1 310/2/1 311/3/1 312/4/1
f 313/1/1 314/2/1 315/3/1 316/4/1
f 317/1/1 318/2/1 319/3/1 320/4/1
f 321/1/1 322/2/1 323/3/1 324/4/1
f 325/1/1 326/2/1 327/3/1 328/4/1
f 329/1/1 330/2/1 331/3/1 332/4/1
f 333/1/1 334/2/1 335/3/1 336/4/1
f 337/1/1 338/2/1 339/3/1 340/4/1
f 341/1/1 342/2/1 343/3/1 344/4/1
f 345/1/1 346/2/1 347/3/1 348/4/1
f 349/1/1 350/2/1 351/3/1 352/4/1
f 353/1/1 354/2/1 355/3/1 356/4/1
f 357/1/1 358/2/1 359/3/1 360/4/1
f 361/1/1 362/2/1 363/3/1 364/4/1
f 365/1/1 366/2/1 367/3/1 368/4/1
f 369/1/1 370/2/1 371/3/1 372/4/1
f 373/1/1 374/2/1 375/3/1 376/4/1
f 377/1/1 378/2/1 379/3/1 380/4/1
f 381/1/1 382/2/1 383/3/1 384/4/1
f 385/1/1 386/2/1 387/3/1 388/4/1
f 389/1/1 390/2/1 391/3/1 392/4/1
f 393/1/1 394/2/1 395/3/1 396/4/1
f 397/1/1 398/2/1 399/3/1 400/4/1
f 401/1/1 402/2/1 403/3/1 404/4/1
f 405/1/1 406/2/1 407/3/1 408/4/1
f 409/1/1 410/2/1 411/3/1 412/4/1
f 413/1/1 414/2/1 415/3/1 416/4/1
f 417/1/1 418/2/1 419/3/1 420/4/1
f 421/1/1 422/2/1 423/3/1 424/4/1
f 425/1/1 426/2/1 427/3/1 428/4/1
f 429/1/1 430/2/1 431/3/1 432/4/1
f 433/1/1 434/2/1 435/3/1 436/4/1
f 437/1/1 438/2/1 439/3/1 440/4/1
f 441/1/1 442/2/1 443/3/1 444/4/1
f 445/1/1 446/2/1 447/3/1 448/4/1
f 449/1/1 450/2/1 451/3/1 452/4/1
f 453/1/1 454/2/1 455/3/1 456/4/1
f 457/1/1 458/2/1 459/3/1 460/4/1
f 461/1/1 462/2/1 463/3/1 464/4/1
f 465/1/1 466/2/1 467/3/1 468/4/1
f 469/1/1 470/2/1 471/3/1 472/4/1
f 473/1/1 474/2/1 475/3/1 476/4/1
f 477/1/1 478/2/1 479/3/1 480/4/1
f 481/1/1 482/2/1 483/3/1 484/4/1
f 485/1/1 486/2/1 487/3/1 488/4/1
f 489/1/1 490/2/1 491/3/1 492/4/1
f 493/1/1 494/2/1 495/3/1 496/4/1
f 497/1/1 498/2/1 499/3/1 500/4/1
f 501/1/1 502/2/1 503/3/1 504/4/1

