# Tiled2Unity generated file. Do not modify by hand.
# Wavefront file for 'Beta_mesh_0015.obj'

# Vertices (Count = 36)
v -93 -5 0
v -94 -5 0
v -94 -4 0
v -93 -4 0
v -8 -7 0
v -9 -7 0
v -9 -6 0
v -8 -6 0
v -25 -11 0
v -26 -11 0
v -26 -10 0
v -25 -10 0
v -50 -19 0
v -51 -19 0
v -51 -18 0
v -50 -18 0
v -94 -36 0
v -95 -36 0
v -95 -35 0
v -94 -35 0
v -2 -43 0
v -3 -43 0
v -3 -42 0
v -2 -42 0
v -5 -51 0
v -6 -51 0
v -6 -50 0
v -5 -50 0
v -66 -68 0
v -67 -68 0
v -67 -67 0
v -66 -67 0
v -13 -71 0
v -14 -71 0
v -14 -70 0
v -13 -70 0

# Texture cooridinates (Count = 4)
vt 0 0
vt 1 0
vt 1 1
vt 0 1

# Normal
vn 0 0 -1

# Mesh description
g Beta_mesh_0015

# Faces
f 1/1/1 2/2/1 3/3/1 4/4/1
f 5/1/1 6/2/1 7/3/1 8/4/1
f 9/1/1 10/2/1 11/3/1 12/4/1
f 13/1/1 14/2/1 15/3/1 16/4/1
f 17/1/1 18/2/1 19/3/1 20/4/1
f 21/1/1 22/2/1 23/3/1 24/4/1
f 25/1/1 26/2/1 27/3/1 28/4/1
f 29/1/1 30/2/1 31/3/1 32/4/1
f 33/1/1 34/2/1 35/3/1 36/4/1

