# Tiled2Unity generated file. Do not modify by hand.
# Wavefront file for 'Beta_mesh_0025.obj'

# Vertices (Count = 340)
v -18 -2 0
v -19 -2 0
v -19 -1 0
v -18 -1 0
v -20 -3 0
v -21 -3 0
v -21 -2 0
v -20 -2 0
v -58 -4 0
v -59 -4 0
v -59 -3 0
v -58 -3 0
v -96 -6 0
v -97 -6 0
v -97 -5 0
v -96 -5 0
v -59 -6 0
v -60 -6 0
v -60 -5 0
v -59 -5 0
v -3 -6 0
v -4 -6 0
v -4 -5 0
v -3 -5 0
v -50 -8 0
v -51 -8 0
v -51 -7 0
v -50 -7 0
v -30 -8 0
v -31 -8 0
v -31 -7 0
v -30 -7 0
v -67 -9 0
v -68 -9 0
v -68 -8 0
v -67 -8 0
v -37 -9 0
v -38 -9 0
v -38 -8 0
v -37 -8 0
v -43 -11 0
v -44 -11 0
v -44 -10 0
v -43 -10 0
v -95 -12 0
v -96 -12 0
v -96 -11 0
v -95 -11 0
v -62 -12 0
v -63 -12 0
v -63 -11 0
v -62 -11 0
v -5 -13 0
v -6 -13 0
v -6 -12 0
v -5 -12 0
v -12 -14 0
v -13 -14 0
v -13 -13 0
v -12 -13 0
v -20 -15 0
v -21 -15 0
v -21 -14 0
v -20 -14 0
v -92 -18 0
v -93 -18 0
v -93 -17 0
v -92 -17 0
v -96 -19 0
v -97 -19 0
v -97 -18 0
v -96 -18 0
v -34 -21 0
v -35 -21 0
v -35 -20 0
v -34 -20 0
v -5 -21 0
v -6 -21 0
v -6 -20 0
v -5 -20 0
v -96 -23 0
v -97 -23 0
v -97 -22 0
v -96 -22 0
v -34 -24 0
v -35 -24 0
v -35 -23 0
v -34 -23 0
v -95 -25 0
v -96 -25 0
v -96 -24 0
v -95 -24 0
v -11 -25 0
v -12 -25 0
v -12 -24 0
v -11 -24 0
v -91 -29 0
v -92 -29 0
v -92 -28 0
v -91 -28 0
v -88 -29 0
v -89 -29 0
v -89 -28 0
v -88 -28 0
v -86 -29 0
v -87 -29 0
v -87 -28 0
v -86 -28 0
v -4 -30 0
v -5 -30 0
v -5 -29 0
v -4 -29 0
v -65 -31 0
v -66 -31 0
v -66 -30 0
v -65 -30 0
v -14 -32 0
v -15 -32 0
v -15 -31 0
v -14 -31 0
v -12 -32 0
v -13 -32 0
v -13 -31 0
v -12 -31 0
v -9 -32 0
v -10 -32 0
v -10 -31 0
v -9 -31 0
v -93 -33 0
v -94 -33 0
v -94 -32 0
v -93 -32 0
v -67 -33 0
v -68 -33 0
v -68 -32 0
v -67 -32 0
v -77 -34 0
v -78 -34 0
v -78 -33 0
v -77 -33 0
v -90 -35 0
v -91 -35 0
v -91 -34 0
v -90 -34 0
v -47 -35 0
v -48 -35 0
v -48 -34 0
v -47 -34 0
v -83 -36 0
v -84 -36 0
v -84 -35 0
v -83 -35 0
v -85 -37 0
v -86 -37 0
v -86 -36 0
v -85 -36 0
v -97 -41 0
v -98 -41 0
v -98 -40 0
v -97 -40 0
v -93 -41 0
v -94 -41 0
v -94 -40 0
v -93 -40 0
v -86 -42 0
v -87 -42 0
v -87 -41 0
v -86 -41 0
v -34 -42 0
v -35 -42 0
v -35 -41 0
v -34 -41 0
v -9 -42 0
v -10 -42 0
v -10 -41 0
v -9 -41 0
v -65 -44 0
v -66 -44 0
v -66 -43 0
v -65 -43 0
v -57 -44 0
v -58 -44 0
v -58 -43 0
v -57 -43 0
v -56 -45 0
v -57 -45 0
v -57 -44 0
v -56 -44 0
v -68 -47 0
v -69 -47 0
v -69 -46 0
v -68 -46 0
v -36 -49 0
v -37 -49 0
v -37 -48 0
v -36 -48 0
v -5 -49 0
v -6 -49 0
v -6 -48 0
v -5 -48 0
v -53 -50 0
v -54 -50 0
v -54 -49 0
v -53 -49 0
v -33 -50 0
v -34 -50 0
v -34 -49 0
v -33 -49 0
v -19 -50 0
v -20 -50 0
v -20 -49 0
v -19 -49 0
v -60 -51 0
v -61 -51 0
v -61 -50 0
v -60 -50 0
v -58 -51 0
v -59 -51 0
v -59 -50 0
v -58 -50 0
v -85 -52 0
v -86 -52 0
v -86 -51 0
v -85 -51 0
v -81 -52 0
v -82 -52 0
v -82 -51 0
v -81 -51 0
v -62 -52 0
v -63 -52 0
v -63 -51 0
v -62 -51 0
v -86 -53 0
v -87 -53 0
v -87 -52 0
v -86 -52 0
v -73 -53 0
v -74 -53 0
v -74 -52 0
v -73 -52 0
v -4 -53 0
v -5 -53 0
v -5 -52 0
v -4 -52 0
v -74 -54 0
v -75 -54 0
v -75 -53 0
v -74 -53 0
v -88 -55 0
v -89 -55 0
v -89 -54 0
v -88 -54 0
v -80 -55 0
v -81 -55 0
v -81 -54 0
v -80 -54 0
v -75 -55 0
v -76 -55 0
v -76 -54 0
v -75 -54 0
v -50 -55 0
v -51 -55 0
v -51 -54 0
v -50 -54 0
v -20 -55 0
v -21 -55 0
v -21 -54 0
v -20 -54 0
v -89 -56 0
v -90 -56 0
v -90 -55 0
v -89 -55 0
v -78 -56 0
v -79 -56 0
v -79 -55 0
v -78 -55 0
v -19 -58 0
v -20 -58 0
v -20 -57 0
v -19 -57 0
v -15 -58 0
v -16 -58 0
v -16 -57 0
v -15 -57 0
v -45 -59 0
v -46 -59 0
v -46 -58 0
v -45 -58 0
v -20 -59 0
v -21 -59 0
v -21 -58 0
v -20 -58 0
v -59 -60 0
v -60 -60 0
v -60 -59 0
v -59 -59 0
v -26 -60 0
v -27 -60 0
v -27 -59 0
v -26 -59 0
v -23 -60 0
v -24 -60 0
v -24 -59 0
v -23 -59 0
v -73 -64 0
v -74 -64 0
v -74 -63 0
v -73 -63 0
v -74 -65 0
v -75 -65 0
v -75 -64 0
v -74 -64 0
v -77 -66 0
v -78 -66 0
v -78 -65 0
v -77 -65 0
v -51 -67 0
v -52 -67 0
v -52 -66 0
v -51 -66 0
v -16 -68 0
v -17 -68 0
v -17 -67 0
v -16 -67 0
v -19 -69 0
v -20 -69 0
v -20 -68 0
v -19 -68 0
v -17 -69 0
v -18 -69 0
v -18 -68 0
v -17 -68 0
v -12 -69 0
v -13 -69 0
v -13 -68 0
v -12 -68 0
v -61 -74 0
v -62 -74 0
v -62 -73 0
v -61 -73 0

# Texture cooridinates (Count = 4)
vt 0 0
vt 1 0
vt 1 1
vt 0 1

# Normal
vn 0 0 -1

# Mesh description
g Beta_mesh_0025

# Faces
f 1/1/1 2/2/1 3/3/1 4/4/1
f 5/1/1 6/2/1 7/3/1 8/4/1
f 9/1/1 10/2/1 11/3/1 12/4/1
f 13/1/1 14/2/1 15/3/1 16/4/1
f 17/1/1 18/2/1 19/3/1 20/4/1
f 21/1/1 22/2/1 23/3/1 24/4/1
f 25/1/1 26/2/1 27/3/1 28/4/1
f 29/1/1 30/2/1 31/3/1 32/4/1
f 33/1/1 34/2/1 35/3/1 36/4/1
f 37/1/1 38/2/1 39/3/1 40/4/1
f 41/1/1 42/2/1 43/3/1 44/4/1
f 45/1/1 46/2/1 47/3/1 48/4/1
f 49/2/1 50/1/1 51/4/1 52/3/1
f 53/2/1 54/1/1 55/4/1 56/3/1
f 57/1/1 58/2/1 59/3/1 60/4/1
f 61/1/1 62/2/1 63/3/1 64/4/1
f 65/2/1 66/1/1 67/4/1 68/3/1
f 69/1/1 70/2/1 71/3/1 72/4/1
f 73/1/1 74/2/1 75/3/1 76/4/1
f 77/2/1 78/1/1 79/4/1 80/3/1
f 81/2/1 82/1/1 83/4/1 84/3/1
f 85/2/1 86/1/1 87/4/1 88/3/1
f 89/1/1 90/2/1 91/3/1 92/4/1
f 93/1/1 94/2/1 95/3/1 96/4/1
f 97/1/1 98/2/1 99/3/1 100/4/1
f 101/2/1 102/1/1 103/4/1 104/3/1
f 105/1/1 106/2/1 107/3/1 108/4/1
f 109/1/1 110/2/1 111/3/1 112/4/1
f 113/1/1 114/2/1 115/3/1 116/4/1
f 117/1/1 118/2/1 119/3/1 120/4/1
f 121/2/1 122/1/1 123/4/1 124/3/1
f 125/1/1 126/2/1 127/3/1 128/4/1
f 129/2/1 130/1/1 131/4/1 132/3/1
f 133/1/1 134/2/1 135/3/1 136/4/1
f 137/1/1 138/2/1 139/3/1 140/4/1
f 141/1/1 142/2/1 143/3/1 144/4/1
f 145/1/1 146/2/1 147/3/1 148/4/1
f 149/1/1 150/2/1 151/3/1 152/4/1
f 153/1/1 154/2/1 155/3/1 156/4/1
f 157/1/1 158/2/1 159/3/1 160/4/1
f 161/1/1 162/2/1 163/3/1 164/4/1
f 165/2/1 166/1/1 167/4/1 168/3/1
f 169/1/1 170/2/1 171/3/1 172/4/1
f 173/1/1 174/2/1 175/3/1 176/4/1
f 177/1/1 178/2/1 179/3/1 180/4/1
f 181/2/1 182/1/1 183/4/1 184/3/1
f 185/2/1 186/1/1 187/4/1 188/3/1
f 189/1/1 190/2/1 191/3/1 192/4/1
f 193/1/1 194/2/1 195/3/1 196/4/1
f 197/2/1 198/1/1 199/4/1 200/3/1
f 201/1/1 202/2/1 203/3/1 204/4/1
f 205/2/1 206/1/1 207/4/1 208/3/1
f 209/1/1 210/2/1 211/3/1 212/4/1
f 213/2/1 214/1/1 215/4/1 216/3/1
f 217/1/1 218/2/1 219/3/1 220/4/1
f 221/1/1 222/2/1 223/3/1 224/4/1
f 225/2/1 226/1/1 227/4/1 228/3/1
f 229/1/1 230/2/1 231/3/1 232/4/1
f 233/1/1 234/2/1 235/3/1 236/4/1
f 237/1/1 238/2/1 239/3/1 240/4/1
f 241/2/1 242/1/1 243/4/1 244/3/1
f 245/1/1 246/2/1 247/3/1 248/4/1
f 249/1/1 250/2/1 251/3/1 252/4/1
f 253/2/1 254/1/1 255/4/1 256/3/1
f 257/1/1 258/2/1 259/3/1 260/4/1
f 261/1/1 262/2/1 263/3/1 264/4/1
f 265/1/1 266/2/1 267/3/1 268/4/1
f 269/1/1 270/2/1 271/3/1 272/4/1
f 273/2/1 274/1/1 275/4/1 276/3/1
f 277/1/1 278/2/1 279/3/1 280/4/1
f 281/2/1 282/1/1 283/4/1 284/3/1
f 285/2/1 286/1/1 287/4/1 288/3/1
f 289/1/1 290/2/1 291/3/1 292/4/1
f 293/1/1 294/2/1 295/3/1 296/4/1
f 297/2/1 298/1/1 299/4/1 300/3/1
f 301/1/1 302/2/1 303/3/1 304/4/1
f 305/1/1 306/2/1 307/3/1 308/4/1
f 309/1/1 310/2/1 311/3/1 312/4/1
f 313/1/1 314/2/1 315/3/1 316/4/1
f 317/1/1 318/2/1 319/3/1 320/4/1
f 321/1/1 322/2/1 323/3/1 324/4/1
f 325/1/1 326/2/1 327/3/1 328/4/1
f 329/1/1 330/2/1 331/3/1 332/4/1
f 333/2/1 334/1/1 335/4/1 336/3/1
f 337/1/1 338/2/1 339/3/1 340/4/1

