# Tiled2Unity generated file. Do not modify by hand.
# Wavefront file for 'Beta_mesh_0008.obj'

# Vertices (Count = 772)
v -6 -4 0
v -7 -4 0
v -7 -3 0
v -6 -3 0
v -27 -5 0
v -28 -5 0
v -28 -4 0
v -27 -4 0
v -18 -5 0
v -19 -5 0
v -19 -4 0
v -18 -4 0
v -95 -6 0
v -96 -6 0
v -96 -5 0
v -95 -5 0
v -80 -6 0
v -81 -6 0
v -81 -5 0
v -80 -5 0
v -67 -6 0
v -68 -6 0
v -68 -5 0
v -67 -5 0
v -65 -6 0
v -66 -6 0
v -66 -5 0
v -65 -5 0
v -64 -6 0
v -65 -6 0
v -65 -5 0
v -64 -5 0
v -54 -6 0
v -55 -6 0
v -55 -5 0
v -54 -5 0
v -28 -6 0
v -29 -6 0
v -29 -5 0
v -28 -5 0
v -14 -6 0
v -15 -6 0
v -15 -5 0
v -14 -5 0
v -2 -6 0
v -3 -6 0
v -3 -5 0
v -2 -5 0
v -84 -7 0
v -85 -7 0
v -85 -6 0
v -84 -6 0
v -74 -7 0
v -75 -7 0
v -75 -6 0
v -74 -6 0
v -57 -7 0
v -58 -7 0
v -58 -6 0
v -57 -6 0
v -51 -7 0
v -52 -7 0
v -52 -6 0
v -51 -6 0
v -94 -8 0
v -95 -8 0
v -95 -7 0
v -94 -7 0
v -93 -8 0
v -94 -8 0
v -94 -7 0
v -93 -7 0
v -49 -8 0
v -50 -8 0
v -50 -7 0
v -49 -7 0
v -15 -8 0
v -16 -8 0
v -16 -7 0
v -15 -7 0
v -6 -8 0
v -7 -8 0
v -7 -7 0
v -6 -7 0
v -94 -9 0
v -95 -9 0
v -95 -8 0
v -94 -8 0
v -65 -9 0
v -66 -9 0
v -66 -8 0
v -65 -8 0
v -8 -9 0
v -9 -9 0
v -9 -8 0
v -8 -8 0
v -88 -10 0
v -89 -10 0
v -89 -9 0
v -88 -9 0
v -47 -10 0
v -48 -10 0
v -48 -9 0
v -47 -9 0
v -30 -10 0
v -31 -10 0
v -31 -9 0
v -30 -9 0
v -2 -10 0
v -3 -10 0
v -3 -9 0
v -2 -9 0
v -1 -10 0
v -2 -10 0
v -2 -9 0
v -1 -9 0
v 0 -10 0
v -1 -10 0
v -1 -9 0
v 0 -9 0
v -86 -11 0
v -87 -11 0
v -87 -10 0
v -86 -10 0
v -36 -11 0
v -37 -11 0
v -37 -10 0
v -36 -10 0
v -67 -12 0
v -68 -12 0
v -68 -11 0
v -67 -11 0
v -10 -12 0
v -11 -12 0
v -11 -11 0
v -10 -11 0
v -6 -13 0
v -7 -13 0
v -7 -12 0
v -6 -12 0
v -93 -14 0
v -94 -14 0
v -94 -13 0
v -93 -13 0
v -83 -14 0
v -84 -14 0
v -84 -13 0
v -83 -13 0
v -93 -15 0
v -94 -15 0
v -94 -14 0
v -93 -14 0
v -47 -15 0
v -48 -15 0
v -48 -14 0
v -47 -14 0
v -98 -16 0
v -99 -16 0
v -99 -15 0
v -98 -15 0
v -83 -16 0
v -84 -16 0
v -84 -15 0
v -83 -15 0
v -15 -16 0
v -16 -16 0
v -16 -15 0
v -15 -15 0
v -87 -18 0
v -88 -18 0
v -88 -17 0
v -87 -17 0
v -68 -18 0
v -69 -18 0
v -69 -17 0
v -68 -17 0
v -55 -18 0
v -56 -18 0
v -56 -17 0
v -55 -17 0
v -2 -18 0
v -3 -18 0
v -3 -17 0
v -2 -17 0
v -38 -19 0
v -39 -19 0
v -39 -18 0
v -38 -18 0
v -66 -20 0
v -67 -20 0
v -67 -19 0
v -66 -19 0
v -39 -20 0
v -40 -20 0
v -40 -19 0
v -39 -19 0
v -12 -20 0
v -13 -20 0
v -13 -19 0
v -12 -19 0
v -94 -21 0
v -95 -21 0
v -95 -20 0
v -94 -20 0
v -88 -21 0
v -89 -21 0
v -89 -20 0
v -88 -20 0
v -72 -21 0
v -73 -21 0
v -73 -20 0
v -72 -20 0
v -68 -21 0
v -69 -21 0
v -69 -20 0
v -68 -20 0
v -14 -21 0
v -15 -21 0
v -15 -20 0
v -14 -20 0
v -2 -21 0
v -3 -21 0
v -3 -20 0
v -2 -20 0
v -62 -22 0
v -63 -22 0
v -63 -21 0
v -62 -21 0
v -55 -22 0
v -56 -22 0
v -56 -21 0
v -55 -21 0
v -40 -22 0
v -41 -22 0
v -41 -21 0
v -40 -21 0
v -98 -23 0
v -99 -23 0
v -99 -22 0
v -98 -22 0
v -42 -23 0
v -43 -23 0
v -43 -22 0
v -42 -22 0
v -50 -24 0
v -51 -24 0
v -51 -23 0
v -50 -23 0
v -47 -24 0
v -48 -24 0
v -48 -23 0
v -47 -23 0
v -93 -25 0
v -94 -25 0
v -94 -24 0
v -93 -24 0
v -91 -26 0
v -92 -26 0
v -92 -25 0
v -91 -25 0
v -47 -26 0
v -48 -26 0
v -48 -25 0
v -47 -25 0
v -2 -26 0
v -3 -26 0
v -3 -25 0
v -2 -25 0
v -1 -26 0
v -2 -26 0
v -2 -25 0
v -1 -25 0
v -98 -28 0
v -99 -28 0
v -99 -27 0
v -98 -27 0
v -62 -28 0
v -63 -28 0
v -63 -27 0
v -62 -27 0
v -39 -28 0
v -40 -28 0
v -40 -27 0
v -39 -27 0
v -91 -29 0
v -92 -29 0
v -92 -28 0
v -91 -28 0
v -47 -29 0
v -48 -29 0
v -48 -28 0
v -47 -28 0
v -91 -30 0
v -92 -30 0
v -92 -29 0
v -91 -29 0
v -88 -30 0
v -89 -30 0
v -89 -29 0
v -88 -29 0
v -42 -30 0
v -43 -30 0
v -43 -29 0
v -42 -29 0
v -3 -30 0
v -4 -30 0
v -4 -29 0
v -3 -29 0
v -97 -31 0
v -98 -31 0
v -98 -30 0
v -97 -30 0
v -67 -32 0
v -68 -32 0
v -68 -31 0
v -67 -31 0
v -61 -32 0
v -62 -32 0
v -62 -31 0
v -61 -31 0
v -44 -32 0
v -45 -32 0
v -45 -31 0
v -44 -31 0
v -94 -33 0
v -95 -33 0
v -95 -32 0
v -94 -32 0
v -13 -33 0
v -14 -33 0
v -14 -32 0
v -13 -32 0
v -38 -34 0
v -39 -34 0
v -39 -33 0
v -38 -33 0
v -11 -34 0
v -12 -34 0
v -12 -33 0
v -11 -33 0
v -96 -35 0
v -97 -35 0
v -97 -34 0
v -96 -34 0
v -88 -35 0
v -89 -35 0
v -89 -34 0
v -88 -34 0
v -86 -35 0
v -87 -35 0
v -87 -34 0
v -86 -34 0
v -62 -35 0
v -63 -35 0
v -63 -34 0
v -62 -34 0
v -53 -35 0
v -54 -35 0
v -54 -34 0
v -53 -34 0
v -48 -35 0
v -49 -35 0
v -49 -34 0
v -48 -34 0
v -44 -35 0
v -45 -35 0
v -45 -34 0
v -44 -34 0
v -38 -36 0
v -39 -36 0
v -39 -35 0
v -38 -35 0
v -92 -37 0
v -93 -37 0
v -93 -36 0
v -92 -36 0
v -64 -37 0
v -65 -37 0
v -65 -36 0
v -64 -36 0
v -51 -37 0
v -52 -37 0
v -52 -36 0
v -51 -36 0
v -45 -37 0
v -46 -37 0
v -46 -36 0
v -45 -36 0
v -33 -37 0
v -34 -37 0
v -34 -36 0
v -33 -36 0
v -15 -37 0
v -16 -37 0
v -16 -36 0
v -15 -36 0
v -85 -38 0
v -86 -38 0
v -86 -37 0
v -85 -37 0
v -80 -38 0
v -81 -38 0
v -81 -37 0
v -80 -37 0
v -5 -38 0
v -6 -38 0
v -6 -37 0
v -5 -37 0
v -88 -39 0
v -89 -39 0
v -89 -38 0
v -88 -38 0
v -57 -39 0
v -58 -39 0
v -58 -38 0
v -57 -38 0
v -37 -39 0
v -38 -39 0
v -38 -38 0
v -37 -38 0
v -8 -39 0
v -9 -39 0
v -9 -38 0
v -8 -38 0
v -3 -39 0
v -4 -39 0
v -4 -38 0
v -3 -38 0
v -52 -41 0
v -53 -41 0
v -53 -40 0
v -52 -40 0
v -29 -41 0
v -30 -41 0
v -30 -40 0
v -29 -40 0
v -8 -41 0
v -9 -41 0
v -9 -40 0
v -8 -40 0
v -43 -42 0
v -44 -42 0
v -44 -41 0
v -43 -41 0
v -93 -43 0
v -94 -43 0
v -94 -42 0
v -93 -42 0
v -53 -43 0
v -54 -43 0
v -54 -42 0
v -53 -42 0
v -47 -43 0
v -48 -43 0
v -48 -42 0
v -47 -42 0
v -13 -43 0
v -14 -43 0
v -14 -42 0
v -13 -42 0
v -6 -43 0
v -7 -43 0
v -7 -42 0
v -6 -42 0
v -98 -44 0
v -99 -44 0
v -99 -43 0
v -98 -43 0
v -81 -44 0
v -82 -44 0
v -82 -43 0
v -81 -43 0
v -74 -44 0
v -75 -44 0
v -75 -43 0
v -74 -43 0
v -28 -44 0
v -29 -44 0
v -29 -43 0
v -28 -43 0
v -12 -44 0
v -13 -44 0
v -13 -43 0
v -12 -43 0
v -1 -44 0
v -2 -44 0
v -2 -43 0
v -1 -43 0
v -86 -45 0
v -87 -45 0
v -87 -44 0
v -86 -44 0
v 0 -45 0
v -1 -45 0
v -1 -44 0
v 0 -44 0
v -87 -46 0
v -88 -46 0
v -88 -45 0
v -87 -45 0
v -75 -46 0
v -76 -46 0
v -76 -45 0
v -75 -45 0
v -65 -46 0
v -66 -46 0
v -66 -45 0
v -65 -45 0
v -61 -46 0
v -62 -46 0
v -62 -45 0
v -61 -45 0
v -32 -46 0
v -33 -46 0
v -33 -45 0
v -32 -45 0
v -21 -46 0
v -22 -46 0
v -22 -45 0
v -21 -45 0
v -18 -46 0
v -19 -46 0
v -19 -45 0
v -18 -45 0
v -27 -47 0
v -28 -47 0
v -28 -46 0
v -27 -46 0
v -23 -47 0
v -24 -47 0
v -24 -46 0
v -23 -46 0
v -18 -47 0
v -19 -47 0
v -19 -46 0
v -18 -46 0
v -97 -48 0
v -98 -48 0
v -98 -47 0
v -97 -47 0
v -69 -48 0
v -70 -48 0
v -70 -47 0
v -69 -47 0
v -28 -48 0
v -29 -48 0
v -29 -47 0
v -28 -47 0
v -16 -48 0
v -17 -48 0
v -17 -47 0
v -16 -47 0
v -66 -49 0
v -67 -49 0
v -67 -48 0
v -66 -48 0
v -62 -49 0
v -63 -49 0
v -63 -48 0
v -62 -48 0
v -31 -49 0
v -32 -49 0
v -32 -48 0
v -31 -48 0
v -27 -49 0
v -28 -49 0
v -28 -48 0
v -27 -48 0
v -10 -49 0
v -11 -49 0
v -11 -48 0
v -10 -48 0
v -96 -50 0
v -97 -50 0
v -97 -49 0
v -96 -49 0
v -44 -50 0
v -45 -50 0
v -45 -49 0
v -44 -49 0
v -27 -50 0
v -28 -50 0
v -28 -49 0
v -27 -49 0
v -49 -51 0
v -50 -51 0
v -50 -50 0
v -49 -50 0
v -45 -51 0
v -46 -51 0
v -46 -50 0
v -45 -50 0
v -34 -51 0
v -35 -51 0
v -35 -50 0
v -34 -50 0
v -14 -51 0
v -15 -51 0
v -15 -50 0
v -14 -50 0
v -13 -51 0
v -14 -51 0
v -14 -50 0
v -13 -50 0
v -57 -53 0
v -58 -53 0
v -58 -52 0
v -57 -52 0
v -29 -53 0
v -30 -53 0
v -30 -52 0
v -29 -52 0
v -82 -54 0
v -83 -54 0
v -83 -53 0
v -82 -53 0
v -17 -54 0
v -18 -54 0
v -18 -53 0
v -17 -53 0
v -84 -55 0
v -85 -55 0
v -85 -54 0
v -84 -54 0
v -74 -55 0
v -75 -55 0
v -75 -54 0
v -74 -54 0
v -39 -56 0
v -40 -56 0
v -40 -55 0
v -39 -55 0
v -11 -56 0
v -12 -56 0
v -12 -55 0
v -11 -55 0
v -71 -57 0
v -72 -57 0
v -72 -56 0
v -71 -56 0
v -55 -57 0
v -56 -57 0
v -56 -56 0
v -55 -56 0
v -45 -57 0
v -46 -57 0
v -46 -56 0
v -45 -56 0
v -90 -58 0
v -91 -58 0
v -91 -57 0
v -90 -57 0
v -79 -58 0
v -80 -58 0
v -80 -57 0
v -79 -57 0
v -62 -58 0
v -63 -58 0
v -63 -57 0
v -62 -57 0
v -61 -58 0
v -62 -58 0
v -62 -57 0
v -61 -57 0
v -58 -58 0
v -59 -58 0
v -59 -57 0
v -58 -57 0
v -48 -58 0
v -49 -58 0
v -49 -57 0
v -48 -57 0
v -36 -58 0
v -37 -58 0
v -37 -57 0
v -36 -57 0
v -16 -58 0
v -17 -58 0
v -17 -57 0
v -16 -57 0
v -56 -60 0
v -57 -60 0
v -57 -59 0
v -56 -59 0
v -34 -60 0
v -35 -60 0
v -35 -59 0
v -34 -59 0
v -32 -60 0
v -33 -60 0
v -33 -59 0
v -32 -59 0
v -53 -62 0
v -54 -62 0
v -54 -61 0
v -53 -61 0
v -51 -62 0
v -52 -62 0
v -52 -61 0
v -51 -61 0
v -21 -62 0
v -22 -62 0
v -22 -61 0
v -21 -61 0
v -26 -64 0
v -27 -64 0
v -27 -63 0
v -26 -63 0
v -91 -66 0
v -92 -66 0
v -92 -65 0
v -91 -65 0
v -50 -66 0
v -51 -66 0
v -51 -65 0
v -50 -65 0
v -39 -66 0
v -40 -66 0
v -40 -65 0
v -39 -65 0
v -91 -67 0
v -92 -67 0
v -92 -66 0
v -91 -66 0
v -87 -67 0
v -88 -67 0
v -88 -66 0
v -87 -66 0
v -70 -67 0
v -71 -67 0
v -71 -66 0
v -70 -66 0
v -93 -68 0
v -94 -68 0
v -94 -67 0
v -93 -67 0
v -86 -68 0
v -87 -68 0
v -87 -67 0
v -86 -67 0
v -24 -68 0
v -25 -68 0
v -25 -67 0
v -24 -67 0
v -43 -69 0
v -44 -69 0
v -44 -68 0
v -43 -68 0
v -88 -70 0
v -89 -70 0
v -89 -69 0
v -88 -69 0
v -72 -70 0
v -73 -70 0
v -73 -69 0
v -72 -69 0
v -14 -70 0
v -15 -70 0
v -15 -69 0
v -14 -69 0
v -95 -71 0
v -96 -71 0
v -96 -70 0
v -95 -70 0
v -75 -71 0
v -76 -71 0
v -76 -70 0
v -75 -70 0
v -18 -72 0
v -19 -72 0
v -19 -71 0
v -18 -71 0

# Texture cooridinates (Count = 4)
vt 0 0
vt 1 0
vt 1 1
vt 0 1

# Normal
vn 0 0 -1

# Mesh description
g Beta_mesh_0008

# Faces
f 1/1/1 2/2/1 3/3/1 4/4/1
f 5/1/1 6/2/1 7/3/1 8/4/1
f 9/1/1 10/2/1 11/3/1 12/4/1
f 13/1/1 14/2/1 15/3/1 16/4/1
f 17/1/1 18/2/1 19/3/1 20/4/1
f 21/1/1 22/2/1 23/3/1 24/4/1
f 25/1/1 26/2/1 27/3/1 28/4/1
f 29/1/1 30/2/1 31/3/1 32/4/1
f 33/1/1 34/2/1 35/3/1 36/4/1
f 37/1/1 38/2/1 39/3/1 40/4/1
f 41/1/1 42/2/1 43/3/1 44/4/1
f 45/1/1 46/2/1 47/3/1 48/4/1
f 49/1/1 50/2/1 51/3/1 52/4/1
f 53/1/1 54/2/1 55/3/1 56/4/1
f 57/1/1 58/2/1 59/3/1 60/4/1
f 61/1/1 62/2/1 63/3/1 64/4/1
f 65/1/1 66/2/1 67/3/1 68/4/1
f 69/1/1 70/2/1 71/3/1 72/4/1
f 73/1/1 74/2/1 75/3/1 76/4/1
f 77/1/1 78/2/1 79/3/1 80/4/1
f 81/1/1 82/2/1 83/3/1 84/4/1
f 85/1/1 86/2/1 87/3/1 88/4/1
f 89/1/1 90/2/1 91/3/1 92/4/1
f 93/1/1 94/2/1 95/3/1 96/4/1
f 97/1/1 98/2/1 99/3/1 100/4/1
f 101/1/1 102/2/1 103/3/1 104/4/1
f 105/1/1 106/2/1 107/3/1 108/4/1
f 109/1/1 110/2/1 111/3/1 112/4/1
f 113/1/1 114/2/1 115/3/1 116/4/1
f 117/1/1 118/2/1 119/3/1 120/4/1
f 121/1/1 122/2/1 123/3/1 124/4/1
f 125/1/1 126/2/1 127/3/1 128/4/1
f 129/1/1 130/2/1 131/3/1 132/4/1
f 133/1/1 134/2/1 135/3/1 136/4/1
f 137/1/1 138/2/1 139/3/1 140/4/1
f 141/1/1 142/2/1 143/3/1 144/4/1
f 145/1/1 146/2/1 147/3/1 148/4/1
f 149/1/1 150/2/1 151/3/1 152/4/1
f 153/1/1 154/2/1 155/3/1 156/4/1
f 157/1/1 158/2/1 159/3/1 160/4/1
f 161/1/1 162/2/1 163/3/1 164/4/1
f 165/1/1 166/2/1 167/3/1 168/4/1
f 169/1/1 170/2/1 171/3/1 172/4/1
f 173/1/1 174/2/1 175/3/1 176/4/1
f 177/1/1 178/2/1 179/3/1 180/4/1
f 181/1/1 182/2/1 183/3/1 184/4/1
f 185/1/1 186/2/1 187/3/1 188/4/1
f 189/1/1 190/2/1 191/3/1 192/4/1
f 193/1/1 194/2/1 195/3/1 196/4/1
f 197/1/1 198/2/1 199/3/1 200/4/1
f 201/1/1 202/2/1 203/3/1 204/4/1
f 205/1/1 206/2/1 207/3/1 208/4/1
f 209/1/1 210/2/1 211/3/1 212/4/1
f 213/1/1 214/2/1 215/3/1 216/4/1
f 217/1/1 218/2/1 219/3/1 220/4/1
f 221/1/1 222/2/1 223/3/1 224/4/1
f 225/1/1 226/2/1 227/3/1 228/4/1
f 229/1/1 230/2/1 231/3/1 232/4/1
f 233/1/1 234/2/1 235/3/1 236/4/1
f 237/1/1 238/2/1 239/3/1 240/4/1
f 241/1/1 242/2/1 243/3/1 244/4/1
f 245/1/1 246/2/1 247/3/1 248/4/1
f 249/1/1 250/2/1 251/3/1 252/4/1
f 253/1/1 254/2/1 255/3/1 256/4/1
f 257/1/1 258/2/1 259/3/1 260/4/1
f 261/1/1 262/2/1 263/3/1 264/4/1
f 265/1/1 266/2/1 267/3/1 268/4/1
f 269/1/1 270/2/1 271/3/1 272/4/1
f 273/1/1 274/2/1 275/3/1 276/4/1
f 277/1/1 278/2/1 279/3/1 280/4/1
f 281/1/1 282/2/1 283/3/1 284/4/1
f 285/1/1 286/2/1 287/3/1 288/4/1
f 289/1/1 290/2/1 291/3/1 292/4/1
f 293/1/1 294/2/1 295/3/1 296/4/1
f 297/1/1 298/2/1 299/3/1 300/4/1
f 301/1/1 302/2/1 303/3/1 304/4/1
f 305/1/1 306/2/1 307/3/1 308/4/1
f 309/1/1 310/2/1 311/3/1 312/4/1
f 313/1/1 314/2/1 315/3/1 316/4/1
f 317/1/1 318/2/1 319/3/1 320/4/1
f 321/1/1 322/2/1 323/3/1 324/4/1
f 325/1/1 326/2/1 327/3/1 328/4/1
f 329/1/1 330/2/1 331/3/1 332/4/1
f 333/1/1 334/2/1 335/3/1 336/4/1
f 337/1/1 338/2/1 339/3/1 340/4/1
f 341/1/1 342/2/1 343/3/1 344/4/1
f 345/1/1 346/2/1 347/3/1 348/4/1
f 349/1/1 350/2/1 351/3/1 352/4/1
f 353/1/1 354/2/1 355/3/1 356/4/1
f 357/1/1 358/2/1 359/3/1 360/4/1
f 361/1/1 362/2/1 363/3/1 364/4/1
f 365/1/1 366/2/1 367/3/1 368/4/1
f 369/1/1 370/2/1 371/3/1 372/4/1
f 373/1/1 374/2/1 375/3/1 376/4/1
f 377/1/1 378/2/1 379/3/1 380/4/1
f 381/1/1 382/2/1 383/3/1 384/4/1
f 385/1/1 386/2/1 387/3/1 388/4/1
f 389/1/1 390/2/1 391/3/1 392/4/1
f 393/1/1 394/2/1 395/3/1 396/4/1
f 397/1/1 398/2/1 399/3/1 400/4/1
f 401/1/1 402/2/1 403/3/1 404/4/1
f 405/1/1 406/2/1 407/3/1 408/4/1
f 409/1/1 410/2/1 411/3/1 412/4/1
f 413/1/1 414/2/1 415/3/1 416/4/1
f 417/1/1 418/2/1 419/3/1 420/4/1
f 421/1/1 422/2/1 423/3/1 424/4/1
f 425/1/1 426/2/1 427/3/1 428/4/1
f 429/1/1 430/2/1 431/3/1 432/4/1
f 433/1/1 434/2/1 435/3/1 436/4/1
f 437/1/1 438/2/1 439/3/1 440/4/1
f 441/1/1 442/2/1 443/3/1 444/4/1
f 445/1/1 446/2/1 447/3/1 448/4/1
f 449/1/1 450/2/1 451/3/1 452/4/1
f 453/1/1 454/2/1 455/3/1 456/4/1
f 457/1/1 458/2/1 459/3/1 460/4/1
f 461/1/1 462/2/1 463/3/1 464/4/1
f 465/1/1 466/2/1 467/3/1 468/4/1
f 469/1/1 470/2/1 471/3/1 472/4/1
f 473/1/1 474/2/1 475/3/1 476/4/1
f 477/1/1 478/2/1 479/3/1 480/4/1
f 481/1/1 482/2/1 483/3/1 484/4/1
f 485/1/1 486/2/1 487/3/1 488/4/1
f 489/1/1 490/2/1 491/3/1 492/4/1
f 493/1/1 494/2/1 495/3/1 496/4/1
f 497/1/1 498/2/1 499/3/1 500/4/1
f 501/1/1 502/2/1 503/3/1 504/4/1
f 505/1/1 506/2/1 507/3/1 508/4/1
f 509/1/1 510/2/1 511/3/1 512/4/1
f 513/1/1 514/2/1 515/3/1 516/4/1
f 517/1/1 518/2/1 519/3/1 520/4/1
f 521/1/1 522/2/1 523/3/1 524/4/1
f 525/1/1 526/2/1 527/3/1 528/4/1
f 529/1/1 530/2/1 531/3/1 532/4/1
f 533/1/1 534/2/1 535/3/1 536/4/1
f 537/1/1 538/2/1 539/3/1 540/4/1
f 541/1/1 542/2/1 543/3/1 544/4/1
f 545/1/1 546/2/1 547/3/1 548/4/1
f 549/1/1 550/2/1 551/3/1 552/4/1
f 553/1/1 554/2/1 555/3/1 556/4/1
f 557/1/1 558/2/1 559/3/1 560/4/1
f 561/1/1 562/2/1 563/3/1 564/4/1
f 565/1/1 566/2/1 567/3/1 568/4/1
f 569/1/1 570/2/1 571/3/1 572/4/1
f 573/1/1 574/2/1 575/3/1 576/4/1
f 577/1/1 578/2/1 579/3/1 580/4/1
f 581/1/1 582/2/1 583/3/1 584/4/1
f 585/1/1 586/2/1 587/3/1 588/4/1
f 589/1/1 590/2/1 591/3/1 592/4/1
f 593/1/1 594/2/1 595/3/1 596/4/1
f 597/1/1 598/2/1 599/3/1 600/4/1
f 601/1/1 602/2/1 603/3/1 604/4/1
f 605/1/1 606/2/1 607/3/1 608/4/1
f 609/1/1 610/2/1 611/3/1 612/4/1
f 613/1/1 614/2/1 615/3/1 616/4/1
f 617/1/1 618/2/1 619/3/1 620/4/1
f 621/1/1 622/2/1 623/3/1 624/4/1
f 625/1/1 626/2/1 627/3/1 628/4/1
f 629/1/1 630/2/1 631/3/1 632/4/1
f 633/1/1 634/2/1 635/3/1 636/4/1
f 637/1/1 638/2/1 639/3/1 640/4/1
f 641/1/1 642/2/1 643/3/1 644/4/1
f 645/1/1 646/2/1 647/3/1 648/4/1
f 649/1/1 650/2/1 651/3/1 652/4/1
f 653/1/1 654/2/1 655/3/1 656/4/1
f 657/1/1 658/2/1 659/3/1 660/4/1
f 661/1/1 662/2/1 663/3/1 664/4/1
f 665/1/1 666/2/1 667/3/1 668/4/1
f 669/1/1 670/2/1 671/3/1 672/4/1
f 673/1/1 674/2/1 675/3/1 676/4/1
f 677/1/1 678/2/1 679/3/1 680/4/1
f 681/1/1 682/2/1 683/3/1 684/4/1
f 685/1/1 686/2/1 687/3/1 688/4/1
f 689/1/1 690/2/1 691/3/1 692/4/1
f 693/1/1 694/2/1 695/3/1 696/4/1
f 697/1/1 698/2/1 699/3/1 700/4/1
f 701/1/1 702/2/1 703/3/1 704/4/1
f 705/1/1 706/2/1 707/3/1 708/4/1
f 709/1/1 710/2/1 711/3/1 712/4/1
f 713/1/1 714/2/1 715/3/1 716/4/1
f 717/1/1 718/2/1 719/3/1 720/4/1
f 721/1/1 722/2/1 723/3/1 724/4/1
f 725/1/1 726/2/1 727/3/1 728/4/1
f 729/1/1 730/2/1 731/3/1 732/4/1
f 733/1/1 734/2/1 735/3/1 736/4/1
f 737/1/1 738/2/1 739/3/1 740/4/1
f 741/1/1 742/2/1 743/3/1 744/4/1
f 745/1/1 746/2/1 747/3/1 748/4/1
f 749/1/1 750/2/1 751/3/1 752/4/1
f 753/1/1 754/2/1 755/3/1 756/4/1
f 757/1/1 758/2/1 759/3/1 760/4/1
f 761/1/1 762/2/1 763/3/1 764/4/1
f 765/1/1 766/2/1 767/3/1 768/4/1
f 769/1/1 770/2/1 771/3/1 772/4/1

