# Tiled2Unity generated file. Do not modify by hand.
# Wavefront file for 'Beta_mesh_0022.obj'

# Vertices (Count = 432)
v -12 -1 0
v -13 -1 0
v -13 0 0
v -12 0 0
v -70 -5 0
v -71 -5 0
v -71 -4 0
v -70 -4 0
v -97 -7 0
v -98 -7 0
v -98 -6 0
v -97 -6 0
v -70 -7 0
v -71 -7 0
v -71 -6 0
v -70 -6 0
v -69 -7 0
v -70 -7 0
v -70 -6 0
v -69 -6 0
v -55 -15 0
v -56 -15 0
v -56 -14 0
v -55 -14 0
v -54 -15 0
v -55 -15 0
v -55 -14 0
v -54 -14 0
v -53 -15 0
v -54 -15 0
v -54 -14 0
v -53 -14 0
v -35 -15 0
v -36 -15 0
v -36 -14 0
v -35 -14 0
v -56 -16 0
v -57 -16 0
v -57 -15 0
v -56 -15 0
v -53 -16 0
v -54 -16 0
v -54 -15 0
v -53 -15 0
v -36 -16 0
v -37 -16 0
v -37 -15 0
v -36 -15 0
v -35 -16 0
v -36 -16 0
v -36 -15 0
v -35 -15 0
v -63 -17 0
v -64 -17 0
v -64 -16 0
v -63 -16 0
v -89 -18 0
v -90 -18 0
v -90 -17 0
v -89 -17 0
v -61 -18 0
v -62 -18 0
v -62 -17 0
v -61 -17 0
v -90 -19 0
v -91 -19 0
v -91 -18 0
v -90 -18 0
v -89 -19 0
v -90 -19 0
v -90 -18 0
v -89 -18 0
v -89 -20 0
v -90 -20 0
v -90 -19 0
v -89 -19 0
v -89 -21 0
v -90 -21 0
v -90 -20 0
v -89 -20 0
v -92 -24 0
v -93 -24 0
v -93 -23 0
v -92 -23 0
v -75 -24 0
v -76 -24 0
v -76 -23 0
v -75 -23 0
v -92 -25 0
v -93 -25 0
v -93 -24 0
v -92 -24 0
v -75 -25 0
v -76 -25 0
v -76 -24 0
v -75 -24 0
v -92 -26 0
v -93 -26 0
v -93 -25 0
v -92 -25 0
v -92 -27 0
v -93 -27 0
v -93 -26 0
v -92 -26 0
v -86 -27 0
v -87 -27 0
v -87 -26 0
v -86 -26 0
v -76 -27 0
v -77 -27 0
v -77 -26 0
v -76 -26 0
v -92 -28 0
v -93 -28 0
v -93 -27 0
v -92 -27 0
v -86 -28 0
v -87 -28 0
v -87 -27 0
v -86 -27 0
v -10 -30 0
v -11 -30 0
v -11 -29 0
v -10 -29 0
v -81 -32 0
v -82 -32 0
v -82 -31 0
v -81 -31 0
v -18 -34 0
v -19 -34 0
v -19 -33 0
v -18 -33 0
v -69 -35 0
v -70 -35 0
v -70 -34 0
v -69 -34 0
v -69 -36 0
v -70 -36 0
v -70 -35 0
v -69 -35 0
v -17 -39 0
v -18 -39 0
v -18 -38 0
v -17 -38 0
v -9 -39 0
v -10 -39 0
v -10 -38 0
v -9 -38 0
v -9 -40 0
v -10 -40 0
v -10 -39 0
v -9 -39 0
v -57 -42 0
v -58 -42 0
v -58 -41 0
v -57 -41 0
v -94 -47 0
v -95 -47 0
v -95 -46 0
v -94 -46 0
v -93 -47 0
v -94 -47 0
v -94 -46 0
v -93 -46 0
v -92 -47 0
v -93 -47 0
v -93 -46 0
v -92 -46 0
v -91 -47 0
v -92 -47 0
v -92 -46 0
v -91 -46 0
v -73 -47 0
v -74 -47 0
v -74 -46 0
v -73 -46 0
v -72 -47 0
v -73 -47 0
v -73 -46 0
v -72 -46 0
v -70 -47 0
v -71 -47 0
v -71 -46 0
v -70 -46 0
v -33 -48 0
v -34 -48 0
v -34 -47 0
v -33 -47 0
v -71 -49 0
v -72 -49 0
v -72 -48 0
v -71 -48 0
v -94 -50 0
v -95 -50 0
v -95 -49 0
v -94 -49 0
v -71 -50 0
v -72 -50 0
v -72 -49 0
v -71 -49 0
v -70 -50 0
v -71 -50 0
v -71 -49 0
v -70 -49 0
v -94 -51 0
v -95 -51 0
v -95 -50 0
v -94 -50 0
v -85 -51 0
v -86 -51 0
v -86 -50 0
v -85 -50 0
v -81 -51 0
v -82 -51 0
v -82 -50 0
v -81 -50 0
v -70 -51 0
v -71 -51 0
v -71 -50 0
v -70 -50 0
v -94 -52 0
v -95 -52 0
v -95 -51 0
v -94 -51 0
v -86 -52 0
v -87 -52 0
v -87 -51 0
v -86 -51 0
v -80 -52 0
v -81 -52 0
v -81 -51 0
v -80 -51 0
v -98 -53 0
v -99 -53 0
v -99 -52 0
v -98 -52 0
v -94 -53 0
v -95 -53 0
v -95 -52 0
v -94 -52 0
v -66 -53 0
v -67 -53 0
v -67 -52 0
v -66 -52 0
v -98 -54 0
v -99 -54 0
v -99 -53 0
v -98 -53 0
v -35 -55 0
v -36 -55 0
v -36 -54 0
v -35 -54 0
v -96 -58 0
v -97 -58 0
v -97 -57 0
v -96 -57 0
v -84 -58 0
v -85 -58 0
v -85 -57 0
v -84 -57 0
v -83 -58 0
v -84 -58 0
v -84 -57 0
v -83 -57 0
v -82 -58 0
v -83 -58 0
v -83 -57 0
v -82 -57 0
v -95 -59 0
v -96 -59 0
v -96 -58 0
v -95 -58 0
v -94 -59 0
v -95 -59 0
v -95 -58 0
v -94 -58 0
v -61 -60 0
v -62 -60 0
v -62 -59 0
v -61 -59 0
v -60 -60 0
v -61 -60 0
v -61 -59 0
v -60 -59 0
v -97 -61 0
v -98 -61 0
v -98 -60 0
v -97 -60 0
v -93 -61 0
v -94 -61 0
v -94 -60 0
v -93 -60 0
v -61 -61 0
v -62 -61 0
v -62 -60 0
v -61 -60 0
v -93 -62 0
v -94 -62 0
v -94 -61 0
v -93 -61 0
v -88 -62 0
v -89 -62 0
v -89 -61 0
v -88 -61 0
v -61 -62 0
v -62 -62 0
v -62 -61 0
v -61 -61 0
v -97 -63 0
v -98 -63 0
v -98 -62 0
v -97 -62 0
v -93 -63 0
v -94 -63 0
v -94 -62 0
v -93 -62 0
v -57 -63 0
v -58 -63 0
v -58 -62 0
v -57 -62 0
v -56 -63 0
v -57 -63 0
v -57 -62 0
v -56 -62 0
v -55 -63 0
v -56 -63 0
v -56 -62 0
v -55 -62 0
v -54 -63 0
v -55 -63 0
v -55 -62 0
v -54 -62 0
v -33 -63 0
v -34 -63 0
v -34 -62 0
v -33 -62 0
v -19 -63 0
v -20 -63 0
v -20 -62 0
v -19 -62 0
v -23 -64 0
v -24 -64 0
v -24 -63 0
v -23 -63 0
v -97 -65 0
v -98 -65 0
v -98 -64 0
v -97 -64 0
v -24 -65 0
v -25 -65 0
v -25 -64 0
v -24 -64 0
v -23 -65 0
v -24 -65 0
v -24 -64 0
v -23 -64 0
v -95 -66 0
v -96 -66 0
v -96 -65 0
v -95 -65 0
v -65 -66 0
v -66 -66 0
v -66 -65 0
v -65 -65 0
v -97 -67 0
v -98 -67 0
v -98 -66 0
v -97 -66 0
v -13 -67 0
v -14 -67 0
v -14 -66 0
v -13 -66 0
v -97 -69 0
v -98 -69 0
v -98 -68 0
v -97 -68 0
v -53 -70 0
v -54 -70 0
v -54 -69 0
v -53 -69 0
v -99 -71 0
v -100 -71 0
v -100 -70 0
v -99 -70 0
v -97 -71 0
v -98 -71 0
v -98 -70 0
v -97 -70 0
v -79 -71 0
v -80 -71 0
v -80 -70 0
v -79 -70 0
v -99 -72 0
v -100 -72 0
v -100 -71 0
v -99 -71 0
v -84 -72 0
v -85 -72 0
v -85 -71 0
v -84 -71 0
v -94 -73 0
v -95 -73 0
v -95 -72 0
v -94 -72 0
v -84 -73 0
v -85 -73 0
v -85 -72 0
v -84 -72 0
v -76 -73 0
v -77 -73 0
v -77 -72 0
v -76 -72 0
v -19 -73 0
v -20 -73 0
v -20 -72 0
v -19 -72 0
v -99 -74 0
v -100 -74 0
v -100 -73 0
v -99 -73 0
v -94 -74 0
v -95 -74 0
v -95 -73 0
v -94 -73 0
v -84 -74 0
v -85 -74 0
v -85 -73 0
v -84 -73 0
v -84 -75 0
v -85 -75 0
v -85 -74 0
v -84 -74 0

# Texture cooridinates (Count = 4)
vt 0 0
vt 1 0
vt 1 1
vt 0 1

# Normal
vn 0 0 -1

# Mesh description
g Beta_mesh_0022

# Faces
f 1/1/1 2/2/1 3/3/1 4/4/1
f 5/1/1 6/2/1 7/3/1 8/4/1
f 9/3/1 10/4/1 11/1/1 12/2/1
f 13/1/1 14/2/1 15/3/1 16/4/1
f 17/1/1 18/2/1 19/3/1 20/4/1
f 21/1/1 22/2/1 23/3/1 24/4/1
f 25/1/1 26/2/1 27/3/1 28/4/1
f 29/1/1 30/2/1 31/3/1 32/4/1
f 33/1/1 34/2/1 35/3/1 36/4/1
f 37/1/1 38/2/1 39/3/1 40/4/1
f 41/1/1 42/2/1 43/3/1 44/4/1
f 45/1/1 46/2/1 47/3/1 48/4/1
f 49/1/1 50/2/1 51/3/1 52/4/1
f 53/1/1 54/2/1 55/3/1 56/4/1
f 57/1/1 58/2/1 59/3/1 60/4/1
f 61/1/1 62/2/1 63/3/1 64/4/1
f 65/3/1 66/4/1 67/1/1 68/2/1
f 69/1/1 70/2/1 71/3/1 72/4/1
f 73/1/1 74/2/1 75/3/1 76/4/1
f 77/1/1 78/2/1 79/3/1 80/4/1
f 81/1/1 82/2/1 83/3/1 84/4/1
f 85/1/1 86/2/1 87/3/1 88/4/1
f 89/1/1 90/2/1 91/3/1 92/4/1
f 93/1/1 94/2/1 95/3/1 96/4/1
f 97/1/1 98/2/1 99/3/1 100/4/1
f 101/1/1 102/2/1 103/3/1 104/4/1
f 105/1/1 106/2/1 107/3/1 108/4/1
f 109/1/1 110/2/1 111/3/1 112/4/1
f 113/1/1 114/2/1 115/3/1 116/4/1
f 117/1/1 118/2/1 119/3/1 120/4/1
f 121/1/1 122/2/1 123/3/1 124/4/1
f 125/1/1 126/2/1 127/3/1 128/4/1
f 129/1/1 130/2/1 131/3/1 132/4/1
f 133/1/1 134/2/1 135/3/1 136/4/1
f 137/1/1 138/2/1 139/3/1 140/4/1
f 141/1/1 142/2/1 143/3/1 144/4/1
f 145/1/1 146/2/1 147/3/1 148/4/1
f 149/1/1 150/2/1 151/3/1 152/4/1
f 153/1/1 154/2/1 155/3/1 156/4/1
f 157/1/1 158/2/1 159/3/1 160/4/1
f 161/1/1 162/2/1 163/3/1 164/4/1
f 165/1/1 166/2/1 167/3/1 168/4/1
f 169/1/1 170/2/1 171/3/1 172/4/1
f 173/1/1 174/2/1 175/3/1 176/4/1
f 177/1/1 178/2/1 179/3/1 180/4/1
f 181/1/1 182/2/1 183/3/1 184/4/1
f 185/1/1 186/2/1 187/3/1 188/4/1
f 189/1/1 190/2/1 191/3/1 192/4/1
f 193/1/1 194/2/1 195/3/1 196/4/1
f 197/1/1 198/2/1 199/3/1 200/4/1
f 201/1/1 202/2/1 203/3/1 204/4/1
f 205/1/1 206/2/1 207/3/1 208/4/1
f 209/4/1 210/3/1 211/2/1 212/1/1
f 213/3/1 214/4/1 215/1/1 216/2/1
f 217/1/1 218/2/1 219/3/1 220/4/1
f 221/1/1 222/2/1 223/3/1 224/4/1
f 225/4/1 226/3/1 227/2/1 228/1/1
f 229/3/1 230/4/1 231/1/1 232/2/1
f 233/1/1 234/2/1 235/3/1 236/4/1
f 237/1/1 238/2/1 239/3/1 240/4/1
f 241/1/1 242/2/1 243/3/1 244/4/1
f 245/1/1 246/2/1 247/3/1 248/4/1
f 249/1/1 250/2/1 251/3/1 252/4/1
f 253/4/1 254/3/1 255/2/1 256/1/1
f 257/4/1 258/3/1 259/2/1 260/1/1
f 261/4/1 262/3/1 263/2/1 264/1/1
f 265/4/1 266/3/1 267/2/1 268/1/1
f 269/4/1 270/3/1 271/2/1 272/1/1
f 273/4/1 274/3/1 275/2/1 276/1/1
f 277/1/1 278/2/1 279/3/1 280/4/1
f 281/1/1 282/2/1 283/3/1 284/4/1
f 285/1/1 286/2/1 287/3/1 288/4/1
f 289/1/1 290/2/1 291/3/1 292/4/1
f 293/1/1 294/2/1 295/3/1 296/4/1
f 297/1/1 298/2/1 299/3/1 300/4/1
f 301/1/1 302/2/1 303/3/1 304/4/1
f 305/1/1 306/2/1 307/3/1 308/4/1
f 309/1/1 310/2/1 311/3/1 312/4/1
f 313/1/1 314/2/1 315/3/1 316/4/1
f 317/1/1 318/2/1 319/3/1 320/4/1
f 321/1/1 322/2/1 323/3/1 324/4/1
f 325/1/1 326/2/1 327/3/1 328/4/1
f 329/1/1 330/2/1 331/3/1 332/4/1
f 333/1/1 334/2/1 335/3/1 336/4/1
f 337/1/1 338/2/1 339/3/1 340/4/1
f 341/1/1 342/2/1 343/3/1 344/4/1
f 345/1/1 346/2/1 347/3/1 348/4/1
f 349/1/1 350/2/1 351/3/1 352/4/1
f 353/1/1 354/2/1 355/3/1 356/4/1
f 357/1/1 358/2/1 359/3/1 360/4/1
f 361/1/1 362/2/1 363/3/1 364/4/1
f 365/1/1 366/2/1 367/3/1 368/4/1
f 369/4/1 370/3/1 371/2/1 372/1/1
f 373/1/1 374/2/1 375/3/1 376/4/1
f 377/1/1 378/2/1 379/3/1 380/4/1
f 381/1/1 382/2/1 383/3/1 384/4/1
f 385/1/1 386/2/1 387/3/1 388/4/1
f 389/1/1 390/2/1 391/3/1 392/4/1
f 393/1/1 394/2/1 395/3/1 396/4/1
f 397/1/1 398/2/1 399/3/1 400/4/1
f 401/1/1 402/2/1 403/3/1 404/4/1
f 405/1/1 406/2/1 407/3/1 408/4/1
f 409/1/1 410/2/1 411/3/1 412/4/1
f 413/1/1 414/2/1 415/3/1 416/4/1
f 417/1/1 418/2/1 419/3/1 420/4/1
f 421/1/1 422/2/1 423/3/1 424/4/1
f 425/1/1 426/2/1 427/3/1 428/4/1
f 429/1/1 430/2/1 431/3/1 432/4/1

