# Tiled2Unity generated file. Do not modify by hand.
# Wavefront file for 'Beta_mesh_0011.obj'

# Vertices (Count = 24)
v -53 -29 0
v -54 -29 0
v -54 -28 0
v -53 -28 0
v -49 -29 0
v -50 -29 0
v -50 -28 0
v -49 -28 0
v -50 -31 0
v -51 -31 0
v -51 -30 0
v -50 -30 0
v -52 -32 0
v -53 -32 0
v -53 -31 0
v -52 -31 0
v -48 -32 0
v -49 -32 0
v -49 -31 0
v -48 -31 0
v -50 -34 0
v -51 -34 0
v -51 -33 0
v -50 -33 0

# Texture cooridinates (Count = 4)
vt 0 0
vt 1 0
vt 1 1
vt 0 1

# Normal
vn 0 0 -1

# Mesh description
g Beta_mesh_0011

# Faces
f 1/1/1 2/2/1 3/3/1 4/4/1
f 5/1/1 6/2/1 7/3/1 8/4/1
f 9/1/1 10/2/1 11/3/1 12/4/1
f 13/1/1 14/2/1 15/3/1 16/4/1
f 17/1/1 18/2/1 19/3/1 20/4/1
f 21/1/1 22/2/1 23/3/1 24/4/1

