# Tiled2Unity generated file. Do not modify by hand.
# Wavefront file for 'Beta_mesh_0028.obj'

# Vertices (Count = 80)
v -53 -4 0
v -54 -4 0
v -54 -3 0
v -53 -3 0
v -36 -12 0
v -37 -12 0
v -37 -11 0
v -36 -11 0
v -37 -13 0
v -38 -13 0
v -38 -12 0
v -37 -12 0
v -20 -14 0
v -21 -14 0
v -21 -13 0
v -20 -13 0
v -15 -27 0
v -16 -27 0
v -16 -26 0
v -15 -26 0
v -26 -29 0
v -27 -29 0
v -27 -28 0
v -26 -28 0
v -6 -30 0
v -7 -30 0
v -7 -29 0
v -6 -29 0
v -54 -31 0
v -55 -31 0
v -55 -30 0
v -54 -30 0
v -25 -37 0
v -26 -37 0
v -26 -36 0
v -25 -36 0
v -30 -47 0
v -31 -47 0
v -31 -46 0
v -30 -46 0
v -60 -48 0
v -61 -48 0
v -61 -47 0
v -60 -47 0
v -50 -53 0
v -51 -53 0
v -51 -52 0
v -50 -52 0
v -46 -53 0
v -47 -53 0
v -47 -52 0
v -46 -52 0
v -85 -58 0
v -86 -58 0
v -86 -57 0
v -85 -57 0
v -81 -58 0
v -82 -58 0
v -82 -57 0
v -81 -57 0
v -86 -59 0
v -87 -59 0
v -87 -58 0
v -86 -58 0
v -80 -59 0
v -81 -59 0
v -81 -58 0
v -80 -58 0
v -87 -60 0
v -88 -60 0
v -88 -59 0
v -87 -59 0
v -79 -60 0
v -80 -60 0
v -80 -59 0
v -79 -59 0
v -88 -61 0
v -89 -61 0
v -89 -60 0
v -88 -60 0

# Texture cooridinates (Count = 4)
vt 0 0
vt 1 0
vt 1 1
vt 0 1

# Normal
vn 0 0 -1

# Mesh description
g Beta_mesh_0028

# Faces
f 1/1/1 2/2/1 3/3/1 4/4/1
f 5/1/1 6/2/1 7/3/1 8/4/1
f 9/1/1 10/2/1 11/3/1 12/4/1
f 13/2/1 14/1/1 15/4/1 16/3/1
f 17/1/1 18/2/1 19/3/1 20/4/1
f 21/1/1 22/2/1 23/3/1 24/4/1
f 25/1/1 26/2/1 27/3/1 28/4/1
f 29/1/1 30/2/1 31/3/1 32/4/1
f 33/2/1 34/1/1 35/4/1 36/3/1
f 37/2/1 38/1/1 39/4/1 40/3/1
f 41/2/1 42/1/1 43/4/1 44/3/1
f 45/2/1 46/1/1 47/4/1 48/3/1
f 49/1/1 50/2/1 51/3/1 52/4/1
f 53/1/1 54/2/1 55/3/1 56/4/1
f 57/2/1 58/1/1 59/4/1 60/3/1
f 61/1/1 62/2/1 63/3/1 64/4/1
f 65/2/1 66/1/1 67/4/1 68/3/1
f 69/1/1 70/2/1 71/3/1 72/4/1
f 73/2/1 74/1/1 75/4/1 76/3/1
f 77/1/1 78/2/1 79/3/1 80/4/1

